<?xml version="1.0" encoding="utf-8"?>
<!-- Generator: Adobe Illustrator 22.0.0, SVG Export Plug-In . SVG Version: 6.00 Build 0)  -->
<svg version="1.1" id="Calque_1" xmlns="http://www.w3.org/2000/svg" xmlns:xlink="http://www.w3.org/1999/xlink" x="0px" y="0px"
	 viewBox="0 0 1045.8 712.7" style="enable-background:new 0 0 1045.8 712.7;" xml:space="preserve">
<style type="text/css">
	.st0{fill:url(#SVGID_1_);}
</style>
<g>
	<g>
		
			<linearGradient id="SVGID_1_" gradientUnits="userSpaceOnUse" x1="807.2745" y1="179.7946" x2="255.321" y2="583.663" gradientTransform="matrix(1 0 0 1 0 -54)">
			<stop  offset="0" style="stop-color:#D40076;stop-opacity:0.2"/>
			<stop  offset="0.4516" style="stop-color:#FF5139;stop-opacity:0.7"/>
			<stop  offset="0.5808" style="stop-color:#FF4330;stop-opacity:0.8"/>
			<stop  offset="1" style="stop-color:#E20033;stop-opacity:0.4"/>
		</linearGradient>
		<path class="st0" d="M215.3,779.7c15.8-1.9,31-6.6,45.1-13.9c15.9-7.9,28.7-20.7,36.7-36.4c7.2-18.7,9.6-38.8,6.9-58.8
			c-1.2-17.1-1.6-25,6.6-29.4c8.2-4.4,15,0.7,28,10.2c15,13.3,33.4,22.3,53,26.1c17.7,1.7,35.3-2.3,50.4-11.5
			c14-7.4,26.3-17.6,35.9-30.2c20.1-25.4,4.2-68-0.8-81.3c-0.1-1-0.2-1.9-0.7-2.9c-0.9-3.3-0.3-6.7,1.2-9.6c1.7-4,1.8-8.2,0.7-12.4
			c-4.8-10.2-11.9-23.5-20.9-21.8c-5.7,0.5-31.1,13-53.6,25.1c-17.3,9.2-33.6,19.5-49.4,31c-13,9.7-25.5,20-37.3,30.9
			c-13,14.6-30.6,24.2-49.9,27.1c-11.9,3.5-26.4,7.8-46.3,14.7c-18.2,7-35.7,15.5-52.8,24.8c-21.7,11.9-46.6,27.1-50.1,31.4
			c-6.1,6.6,0.9,18.9,7,29.3c2.5,3.5,6.2,5.8,10.6,6.3c3.3,0.6,6.3,2,8.8,4c0.7,0.6,1.3,1,2.1,2.2
			C156.3,746.8,183,782.6,215.3,779.7z M343.5,626.1c-3.3-3.2-5.3-7.7-5.2-12.7c0.3-8.2,8.5-18.5,24.4-30.9
			c10.8-8.5,22.4-16,34.5-22.9c19.2-10.6,36-15.5,43.4-12.3c13.4,5.3,27.8,40.2,27.9,55.5l0,0c-0.5,10.7-3.1,26.9-31.5,43.2
			l-3.7,2.1C410.1,660.9,384.8,669.1,343.5,626.1z M161.3,700c2-8.4,14.6-19.2,33.9-29.8c12.2-6.5,24.8-12.1,37.8-16.7
			c18.6-6.1,32-7.8,39-3.7c4.2,2.1,7.1,6.2,7.8,10.9l0,0.3c14.6,57.6-6.8,75-29.9,87.5l-3.7,2.1c-29,15.2-44.3,8.9-53.2,3.1
			C179.5,744.9,158.5,714.2,161.3,700z M931.5,441.9c-27-41.1-47.8-45.5-72-29.3c-12.7-40-43.7-35.3-79.3-21.6
			c-32.8,12.7-52.9-27.9-52.9-27.9s4.6,53.2,47,70.9c42.5,17.8,59.4-11.3,76.8-3.7c17.1,7.4,25.4,41.9,59.6,54.7
			c40.8,15.3,81.1-17.6,81.1-17.6S960.4,485.9,931.5,441.9z M671.9,200.8c-13.2-3.7-26.8,4.1-30.5,16.9v0.7
			c-3.7,13.6,4.4,27.4,18,31.2l0,0c13.6,3.4,27.4-4.7,31.2-18.3C693.6,218,685.5,204.1,671.9,200.8z M726.1,13.1v-0.7
			c-11.2-2.4-22.7-1.7-33.5,2c-23.4,6.4-41.3,24.7-47.1,48.4c-3,11.5,3.7,23.4,15.2,26.4c2.4,0.7,5.1,1,7.5,0.7c9.8-1,18-8.5,20-18
			c5.4-13.2,20.7-19.3,33.5-13.6l0,0l0.7,0.3c11.9,6.1,19,27.8,2.4,38.6c-4.4,2.4-8.8,4.1-13.9,4.7c-11.2,3-22,6.8-32.5,11.9
			c-13.9,5.4-24.4,17.6-27.4,32.2c-1,4.7-0.3,9.5,1.4,13.9c4.1,10.2,13.6,17.3,24.4,18c11.9,0.7,23.7-5.1,26.8-14.2
			c1.7-5.1,6.1-9.1,11.2-10.5c8.8-3.4,17.6-5.8,26.1-9.8c34.6-16.6,49.1-58.3,32.5-92.8C764.4,31.7,746.8,17.8,726.1,13.1z
			 M442,454.8l0.2,0.3c1.1,6.1,6.9,10.1,13.1,9.1l0,0c6.1-1.1,10-7.1,9.1-13.2c-1.3-6-7.1-10-13.3-8.8
			C445,443.2,441.1,448.8,442,454.8z M423.9,363.4c-8.2,7-11.8,17.8-9.7,28.3c0.9,5.2,6,8.6,11.2,7.7c1.1-0.1,2.2-0.7,3.2-1.1
			c3.7-2.4,5.6-6.7,4.5-11.1c-0.3-6.3,4.6-11.5,10.8-12l0,0l0.4,0c6,0.3,13,7.6,8.3,14.9c-1.3,1.8-2.9,3.3-4.6,4.5
			c-3.9,3.2-7.6,6.9-10.7,10.9c-4.7,4.8-6.5,11.6-4.8,18c0.6,2.1,1.6,3.9,3.1,5.3c3.5,3.4,8.6,4.3,13.2,2.5
			c4.9-1.9,8.5-6.6,8.1-10.8c-0.3-2.4,0.6-4.8,2.6-6.3c2.9-2.9,6-5.8,8.6-8.9c10.6-13.2,8.6-32.7-4.6-43.3c-7.3-6-17.1-8.2-26.3-6
			l-0.2-0.3C431.9,357.5,427.5,360,423.9,363.4z M896.5,233.7c0.2,0,0.4,0,0.6,0c1-0.2,2.1-0.4,3.3-0.7c0.2,1.2,0.3,2.1,0.4,3.1
			c0,1.4,1.1,2.5,2.5,2.4c0.3,0,0.5-0.1,0.9-0.2c1.4,0,2.5-1.2,2.4-2.6c0-0.2-0.1-0.5-0.1-0.8c-0.2-1-0.4-2-0.6-3.1l3-0.4
			c1.4,0,2.5-1.2,2.5-2.5c0-0.3-0.1-0.5-0.1-0.8c-0.1-1.4-1.3-2.4-2.7-2.4c-0.2,0-0.4,0.1-0.7,0.1l-2.9,0.5l-0.5-3
			c-0.3-1.4-1.8-2.4-3.4-2.1c-1.3,0.4-2.3,1.7-2.1,3.1c0.2,1,0.5,2,0.8,3.1c-1.4,0.2-2.4,0.3-3.4,0.4c-1.4,0.1-2.4,1.3-2.3,2.7
			c0,0.2,0,0.3,0.1,0.5C894,232.6,895.1,233.8,896.5,233.7z M967.6,221.7c-5.6-12.6-15.6-22.8-28.2-28.4
			c-25.4-11.8-55.6-3.9-71.8,19.1c-2.8,4-5.1,8.2-6.9,12.8c-4.1,10.6-5,22.2-2.5,33.2c2.4,10.8,7.8,20.6,15.6,28.4
			c3.6,3.3,5.9,7.8,6.6,12.6c0.5,2.8,1,5.6,1.4,8.5c0,1,0.9,1.9,2,1.9c0.2,0,0.4,0,0.5-0.1l3.3-0.6c9.7-1.7,19.3-3.4,29-5.1
			c5.4-0.8,10.8-2,16.1-3.5c19.4-6.8,32.1-20.3,37.7-40.2C974.4,247.6,973.3,233.8,967.6,221.7z M946.1,267.1c0,0.1-0.2,0.3-0.2,0.4
			c-12.2,17-35.8,20.9-52.7,8.8c-16.9-12.1-20.9-35.8-8.8-52.7c11.9-17,35.4-21,52.4-9.1C953.8,226.4,958,250,946.1,267.1z
			 M939.1,248.4L939.1,248.4c-1,0.2-2,0.4-3.2,0.8c-0.1-1.3-0.1-2.2-0.4-3.2c-0.3-1.5-1.8-2.5-3.4-2.2c-1.3,0.4-2.3,1.7-2.2,3
			c0.2,1,0.4,2,0.6,3.2c-1.2,0.2-2.1,0.3-3.1,0.4c-1.5,0.3-2.6,1.8-2.2,3.3c0.3,1.5,1.8,2.6,3.3,2.2c1-0.2,1.9-0.4,3-0.6l0.5,3
			c0.3,1.5,1.8,2.5,3.4,2.2c1.4-0.3,2.3-1.6,2.2-3c-0.2-1-0.4-1.9-0.8-3.3c1.3-0.1,2.2-0.1,3.2-0.3c1.5-0.3,2.5-1.8,2.2-3.4
			C941.8,249.1,940.6,248.3,939.1,248.4z M920.7,264.1c-0.5-0.2-1-0.3-1.5-0.2l-0.2-0.1c-1,0-2.1,0.1-3.2,0.2
			c-0.5,0.2-1-0.2-1.2-0.6l0.1-0.2c-0.3-1.3-0.7-2.6-1.1-3.9c-0.4-2.2-2.5-3.7-4.8-3.3c-1.3,0.1-2.6,0.2-3.9,0.3
			c-0.6,0.2-1.3-0.1-1.4-0.8l0,0l0.1-0.2c-0.3-1.2-0.8-2.5-1.2-3.7c-0.4-1.3-1.3-2.6-2.4-3.3c-0.7-0.4-1.3-0.9-1.9-1.3
			c-0.9-0.6-1.8-1.3-2.7-1.9c-1.3-0.8-3-0.4-3.9,0.9c-0.8,1.2-0.6,2.9,0.6,3.8c0.7,0.5,1.3,1,2,1.5c2.1,1,3.5,2.9,3.8,5.2
			c0.2,1,0.5,2,1,3c0.4,1.7,1.8,2.9,3.6,2.9c1.6,0,3.4,0,5-0.2c0.7-0.2,1.4,0.2,1.6,0.9c0,0,0,0.1,0.1,0.1l-0.1,0.2
			c0.4,1.3,0.8,2.7,1.2,4c0.5,1.6,1.9,2.6,3.5,2.6c2.1-0.1,4.2-0.2,6.2-0.5c1,0,2-0.8,2.2-1.9C922.9,266.4,922.2,264.7,920.7,264.1z
			 M152.2,367.6l0.2,0.5l3.9-2.3l-2.3-3.9l6.1-3.6c9.4,10,21.7,17.5,35.9,21.2c16,4.1,32.2,2.7,46.4-3.2c5.1-2.2,10.9-2.6,16.2-1.2
			l12.6,3.2c1.2,0.2,2.4-0.4,2.6-1.6l13.2-51.5c2.7-10.9,3.1-21.9,1.1-32.3l9.3-5.4l-2.3-3.9l3.7-2.1c3.2-4.2,3.9-10.2,2-15.3
			c-0.2-0.5-0.5-1.3-0.8-2l-7.2-12.2c-3.8-6.4-10.6-9.9-17.6-9.8c-27.7-27.7-71.6-34.3-106.7-13.2c-34.8,20.8-50.3,61.9-39.7,99.2
			c-4.5,6.2-5.1,14.6-0.9,21.7L135,362c0.4,0.7,1,1.4,1.5,1.9C140.3,367.8,146.2,369.2,152.2,367.6z M262.5,300l-12.5,7.4
			c-2.3-1.2-5.2-1.3-7.7,0.2c-3.8,2.2-4.9,7.1-2.7,10.9c2.2,3.8,7.1,4.9,10.9,2.7c3-1.7,4.3-5,3.8-8.3l8.7-5.2
			c-0.1,3.4-0.4,7-1.5,10.5c-6.6,25.8-32.8,41.3-58.7,34.7c-25.8-6.6-41.3-32.8-34.7-58.7c2.1-8.5,6.5-15.9,12.3-21.7
			c0.6,5.1,2.8,11.9,9.1,17.6c0,0,1.1-12.9,5.7-23.5l7.3,10.1l0.9-11.2l8.7,6.5l3.9-13l11.5,9.8c0,0,3.2-2.6,4.3-7.8
			C248.4,267.7,260,282.7,262.5,300z M294.1,281.2l-7.4,4.5c-0.2-0.8-0.5-1.6-0.8-2.3l6.9-4.1L294.1,281.2z M172.2,234.3
			c35.9-21.3,81.4-11.6,105.8,21.1l-5.7,3.5c-9.8-11.8-23.1-20.8-39.2-24.8c-40-10.1-81,14-91.2,54.1c-4.1,16-2.6,32.1,3,46.3
			l-4.9,3C123.1,300.2,136.3,255.6,172.2,234.3z M192.5,311.6l-3.7,2.1c1,0.3,1.9,1,2.3,2c1.4,2.3,0.6,5.1-1.7,6.4s-5.1,0.6-6.4-1.7
			s-0.6-5.1,1.7-6.4c1-0.6,2.3-0.8,3.3-0.5l-2.1-3.7c-0.9-1.5-2.1-1.4-3.6-0.6l-1,0.6c-1.5,0.9-2.2,2-1.3,3.5l2.5,4.1l-3.9,2.3
			c-1.5,0.9-1.6,2.2-0.7,3.7l0.6,1c0.9,1.5,2,2.2,3.5,1.3l3.9-2.3l2.3,3.9c0.9,1.5,2.3,1.4,3.8,0.6l1-0.6c1.5-0.9,2.1-1.9,1.2-3.4
			l-2.3-3.9l4.1-2.5c1.5-0.9,1.3-2.2,0.4-3.7l-0.6-1C195,311.5,194,310.7,192.5,311.6z M219.1,312.1l-4.9,3
			c-2.5,1.5-3.3,4.8-1.8,7.2l0.6,1c1.5,2.5,4.8,3.3,7.2,1.8l4.9-3c2.5-1.5,3.3-4.8,1.8-7.2l-0.6-1
			C224.9,311.4,221.6,310.6,219.1,312.1z M238.6,284.3l-3.7,2.1c1,0.3,1.9,1,2.3,2c1.4,2.3,0.6,5.1-1.7,6.4
			c-2.3,1.4-5.1,0.6-6.4-1.7c-1.4-2.3-0.6-5.1,1.7-6.4c1-0.6,2.3-0.8,3.3-0.5l-2.1-3.7c-0.9-1.5-2.1-1.4-3.6-0.6l-1,0.6
			c-1.5,0.9-2.2,2-1.3,3.5l2.5,4.1l-3.9,2.3c-1.5,0.9-1.6,2.2-0.7,3.7l0.6,1c0.9,1.5,2,2.2,3.5,1.3l3.9-2.3l2.3,3.9
			c0.9,1.5,2.3,1.4,3.8,0.6l1-0.6c1.5-0.9,2.1-1.9,1.2-3.4l-2.3-3.9l4.1-2.5c1.5-0.9,1.3-2.2,0.4-3.7l-0.6-1
			C241.2,284,240.3,283.3,238.6,284.3z M233.6,102.3c2.1,4.1,7.1,5.8,11.3,3.5l10.1-5.3l5.3,10.1c2.1,4.1,7.1,5.8,11.3,3.5l2.8-1.6
			c4.1-2.1,5.8-7.1,3.5-11.3L272.5,91l10.1-5.3c4.1-2.1,5.8-7.1,3.5-11.3l-1.6-2.8c-2.1-4.1-7.1-5.8-11.3-3.5l-10.1,5.3l-5.3-10.1
			c-2.1-4.1-7.1-5.8-11.3-3.5l-2.8,1.6c-4.1,2.1-5.8,7.1-3.5,11.3l5.3,10.1l-10.1,5.3c-4.1,2.1-5.8,7.1-3.5,11.3L233.6,102.3z
			 M357.3,140.5c2.1,4.1,7.1,5.8,11.3,3.5l10.1-5.3l5.3,10.1c2.1,4.1,7.1,5.8,11.3,3.5l2.8-1.6c4.1-2.1,5.8-7.1,3.5-11.3l-5.3-10.1
			l10.1-5.3c4.1-2.1,5.8-7.1,3.5-11.3l-1.6-2.8c-2.1-4.1-7.1-5.8-11.3-3.5l-10.1,5.3l-5.3-10.1c-2.1-4.1-7.1-5.8-11.3-3.5l-2.8,1.6
			c-4.1,2.1-5.8,7.1-3.5,11.3l5.3,10.1l-10.1,5.3c-4.1,2.1-5.8,7.1-3.5,11.3L357.3,140.5z"/>
	</g>
</g>
</svg>
