<?xml version="1.0" encoding="utf-8"?>
<!-- Generator: Adobe Illustrator 22.0.0, SVG Export Plug-In . SVG Version: 6.00 Build 0)  -->
<svg version="1.1" id="Calque_1" xmlns="http://www.w3.org/2000/svg" xmlns:xlink="http://www.w3.org/1999/xlink" x="0px" y="0px"
	 viewBox="0 0 35 40" style="enable-background:new 0 0 35 40;" xml:space="preserve">
<style type="text/css">
	.st0{fill:#FFFFFF;}
</style>
<title>cepegra-logo copy 2</title>
<desc>Created with Sketch.</desc>
<g id="Symbols">
	<path id="path-1_1_" class="st0" d="M28.6,29.3C33.9,24.1,34.8,16,31,9.7S19.4,0.6,12.4,2.9S0.8,12,1.4,19.3s6.2,13.3,13.5,14.5
		c1.2,0.2,2.3,0.7,3.1,1.6l2,2c0.1,0.1,0.2,0.1,0.3,0.1c0.1,0,0.2,0,0.3-0.1L28.6,29.3L28.6,29.3L28.6,29.3z M10.6,11.3
		c2.7-2.7,6.8-3.5,10.4-2.1s5.9,4.9,5.9,8.7s-2.3,7.3-5.9,8.7c-3.6,1.5-7.6,0.7-10.4-2.1C6.9,21,6.9,15,10.6,11.3L10.6,11.3z"/>
</g>
<path id="Shape_52_" class="st0" d="M51.7,15.5c-1.2-0.2-2.4-0.4-3.6-0.4c-0.9-0.1-1.9,0.2-2.6,0.8c-0.7,0.6-1.1,1.6-1.1,2.5
	c0,0.9,0.3,1.8,1,2.4s1.6,0.9,2.5,0.8c1.3-0.1,2.5-0.2,3.8-0.5l0.4,3.2c-1.5,0.5-3,0.8-4.6,0.8c-4.3,0-7.3-2.7-7.3-6.8
	s3-6.8,7.4-6.8c1.5,0,3,0.3,4.5,0.7L51.7,15.5z"/>
<path id="Shape_53_" class="st0" d="M67.1,17.3c0,0.8-0.1,1.6-0.2,2.4h-8.6c0.5,1.3,1.8,2.1,3.2,1.9c1.5,0,3.1-0.3,4.6-0.6l0.6,3.1
	c-1.7,0.6-3.4,0.9-5.2,1c-4.8,0-7.4-2.9-7.4-6.8c-0.1-1.8,0.6-3.6,1.9-4.9s3.1-2,4.9-1.9C64.5,11.6,67.1,13.9,67.1,17.3L67.1,17.3z
	 M58.1,17.2h5.3c0-0.6-0.3-1.2-0.8-1.7c-0.5-0.4-1.1-0.7-1.8-0.6C59.4,14.8,58.3,15.8,58.1,17.2L58.1,17.2z"/>
<path id="Shape_54_" class="st0" d="M83.4,18.3c0.1,1.7-0.5,3.4-1.6,4.7s-2.8,2-4.6,2c-1.2,0-2.4,0-3.5-0.1v5.8h-4.3V12.2
	c2.5-0.4,5.1-0.6,7.6-0.6C81,11.6,83.3,14.3,83.4,18.3L83.4,18.3z M79.3,18.4c0-1.9-0.9-3.3-3-3.3c-0.9,0-1.7,0-2.6,0.1v6
	c0.9,0.1,1.8,0.2,2.8,0.2c0.8,0,1.5-0.3,2.1-0.9S79.4,19.2,79.3,18.4L79.3,18.4z"/>
<path id="Shape_55_" class="st0" d="M98.4,17.3c0,0.8-0.1,1.6-0.2,2.4h-8.6c0.5,1.3,1.8,2.1,3.2,1.9c1.5,0,3.1-0.3,4.6-0.6l0.6,3.1
	c-1.7,0.6-3.4,0.9-5.2,1c-4.8,0-7.4-2.9-7.4-6.8c-0.1-1.8,0.6-3.6,1.9-4.9s3.1-2,4.9-1.9C95.7,11.6,98.4,13.9,98.4,17.3L98.4,17.3z
	 M89.4,17.2h5.3c0-0.6-0.3-1.3-0.8-1.7s-1.1-0.7-1.8-0.6C90.8,14.8,89.6,15.8,89.4,17.2L89.4,17.2z"/>
<path id="Shape_56_" class="st0" d="M114.5,12.2v12.3c0,4.2-2.6,7-7.6,7c-1.6,0-3.1-0.3-4.7-0.8l0.6-3.3c1.3,0.3,2.6,0.5,3.9,0.5
	c2.3,0,3.4-1.1,3.5-3.2c-1.2,0.1-2.3,0.2-3.5,0.1c-1.7,0-3.4-0.7-4.6-2s-1.8-3-1.7-4.7c0.1-4,2.4-6.7,6.4-6.7
	C109.4,11.7,112,11.9,114.5,12.2L114.5,12.2z M104.5,18.4c-0.1,0.8,0.2,1.6,0.8,2.2s1.3,0.9,2.1,0.9c0.9,0,1.8,0,2.7-0.2v-6
	c-0.9-0.1-1.7-0.1-2.6-0.1C105.5,15.1,104.5,16.5,104.5,18.4L104.5,18.4z"/>
<path id="Shape_57_" class="st0" d="M126,15.8c-1.5,0-2.9,0-4.4,0.2v8.8h-4.3V12.5c2.9-0.5,5.8-0.8,8.7-0.8L126,15.8L126,15.8z"/>
<path id="Shape_58_" class="st0" d="M141.2,12.2v12.5h-4.3v-0.9c-1,0.8-2.3,1.2-3.6,1.2c-3.1,0-6.1-2.4-6.1-6.8
	c0.1-4,2.4-6.7,6.4-6.7C136.2,11.6,138.7,11.9,141.2,12.2L141.2,12.2z M131.2,18.4c-0.1,0.8,0.2,1.6,0.7,2.3s1.3,1,2.2,1
	c1,0,2-0.4,2.7-1.1v-5.3c-0.9-0.1-1.7-0.1-2.6-0.1C132.2,15.1,131.2,16.5,131.2,18.4L131.2,18.4z"/>
</svg>
