<?xml version="1.0" encoding="utf-8"?>
<!-- Generator: Adobe Illustrator 22.0.0, SVG Export Plug-In . SVG Version: 6.00 Build 0)  -->
<svg version="1.1" id="Calque_1" xmlns="http://www.w3.org/2000/svg" xmlns:xlink="http://www.w3.org/1999/xlink" x="0px" y="0px"
	 viewBox="0 0 35 39.5" style="enable-background:new 0 0 35 39.5;" xml:space="preserve">
<style type="text/css">
	.st0{filter:url(#Adobe_OpacityMaskFilter);}
	.st1{fill:#FFFFFF;}
	.st2{mask:url(#mask-2_1_);}
	.st3{fill:url(#Rectangle-path_1_);}
	.st4{fill:#F6A202;}
	.st5{fill:#F6A401;}
	.st6{fill:#F08604;}
	.st7{fill:#F5A000;}
	.st8{fill:#F18900;}
	.st9{fill:url(#Shape_52_);}
	.st10{fill:url(#Shape_53_);}
	.st11{fill:url(#Shape_54_);}
	.st12{fill:url(#Shape_55_);}
	.st13{fill:#F4980E;}
	.st14{fill:#FCC211;}
	.st15{fill:#FCC510;}
	.st16{fill:#F59E01;}
	.st17{fill:#F29100;}
	.st18{fill:#FDC904;}
	.st19{fill:#F08502;}
	.st20{fill:#F08600;}
	.st21{fill:#FBBD09;}
	.st22{fill:#D27202;}
	.st23{fill:#E17B03;}
	.st24{fill:#F39407;}
	.st25{fill:#F9B40A;}
	.st26{fill:#F39702;}
	.st27{fill:#E88403;}
	.st28{fill:#F8AF0D;}
	.st29{fill:#F49A03;}
	.st30{fill:#F18D00;}
	.st31{fill:#F9B403;}
	.st32{fill:#F7A806;}
	.st33{fill:#F49B03;}
	.st34{fill:#F9B40B;}
	.st35{fill:#F08800;}
	.st36{fill:#F9B108;}
	.st37{fill:#F9B207;}
	.st38{fill:#F6A508;}
	.st39{fill:#EC8005;}
	.st40{fill:#F18A00;}
	.st41{fill:#F7A703;}
	.st42{fill:#F29301;}
</style>
<title>cepegra-logo copy 2</title>
<desc>Created with Sketch.</desc>
<g id="Symbols">
	<g id="header-back" transform="translate(-834.000000, -25.000000)">
		<g id="cepegra-logo-copy-2" transform="translate(834.000000, 25.000000)">
			<g id="cepegra-logo">
				<g id="Clipped">
					<g id="Shape">
					</g>
					<defs>
						<filter id="Adobe_OpacityMaskFilter" filterUnits="userSpaceOnUse" x="-3.3" y="-1.3" width="41.3" height="53.2">
							<feColorMatrix  type="matrix" values="1 0 0 0 0  0 1 0 0 0  0 0 1 0 0  0 0 0 1 0"/>
						</filter>
					</defs>
					<mask maskUnits="userSpaceOnUse" x="-3.3" y="-1.3" width="41.3" height="53.2" id="mask-2_1_">
						<g class="st0">
							<path id="path-1_1_" class="st1" d="M28.6,29.3C33.9,24.1,34.8,16,31,9.7S19.4,0.6,12.4,2.9S0.8,12,1.4,19.3
								s6.2,13.3,13.5,14.5c1.2,0.2,2.3,0.7,3.1,1.6l2,2c0.1,0.1,0.2,0.1,0.3,0.1c0.1,0,0.2,0,0.3-0.1L28.6,29.3L28.6,29.3
								L28.6,29.3z M10.6,11.3c2.7-2.7,6.8-3.5,10.4-2.1s5.9,4.9,5.9,8.7s-2.3,7.3-5.9,8.7c-3.6,1.5-7.6,0.7-10.4-2.1
								C6.9,21,6.9,15,10.6,11.3L10.6,11.3z"/>
						</g>
					</mask>
					<g id="Group" class="st2">
						<g transform="translate(-4.856494, -3.627907)">
							
								<radialGradient id="Rectangle-path_1_" cx="-591.1829" cy="399.3421" r="1.044" gradientTransform="matrix(41.3045 0 0 -41.3045 24427.8496 16505.2891)" gradientUnits="userSpaceOnUse">
								<stop  offset="0" style="stop-color:#FDBA2A"/>
								<stop  offset="0.11" style="stop-color:#FCB329"/>
								<stop  offset="0.27" style="stop-color:#F8A125"/>
								<stop  offset="0.32" style="stop-color:#F79A23"/>
								<stop  offset="0.55" style="stop-color:#F38D22"/>
								<stop  offset="0.65" style="stop-color:#F08521"/>
								<stop  offset="0.71" style="stop-color:#EA8220"/>
								<stop  offset="0.78" style="stop-color:#D9781E"/>
								<stop  offset="0.87" style="stop-color:#BC6919"/>
								<stop  offset="0.96" style="stop-color:#955414"/>
								<stop  offset="1" style="stop-color:#894E12"/>
							</radialGradient>
							<rect id="Rectangle-path" x="1.6" y="2.3" class="st3" width="41.3" height="43.5"/>
							<polygon id="Shape_1_" class="st4" points="23.5,34.8 24.9,33.8 25.4,33.6 24,34.7 							"/>
							<polygon id="Shape_2_" class="st5" points="24.9,36.3 26.4,35.2 25.4,33.6 24,34.7 							"/>
							<polygon id="Shape_3_" class="st6" points="24.3,36.1 23.5,34.8 24,34.7 24.9,36.3 							"/>
							<polygon id="Shape_4_" class="st7" points="34,16.8 34.6,17.2 34.7,17.8 34.1,17.5 							"/>
							<polygon id="Shape_5_" class="st8" points="33.5,17.9 34.1,18.2 34.7,17.8 34.1,17.5 							"/>
							<polygon id="Shape_6_" class="st7" points="33.4,17.3 34,16.8 34.1,17.5 33.5,17.9 							"/>
							
								<radialGradient id="Shape_52_" cx="-568.095" cy="385.7796" r="1.2058" gradientTransform="matrix(16.253 0 0 -16.253 9246.1396 6311.3833)" gradientUnits="userSpaceOnUse">
								<stop  offset="0" style="stop-color:#894E12;stop-opacity:0.4"/>
								<stop  offset="0.3" style="stop-color:#8B4F11;stop-opacity:0.38"/>
								<stop  offset="0.49" style="stop-color:#90530E;stop-opacity:0.32"/>
								<stop  offset="0.64" style="stop-color:#9A590A;stop-opacity:0.21"/>
								<stop  offset="0.78" style="stop-color:#A76203;stop-opacity:7.000000e-02"/>
								<stop  offset="0.82" style="stop-color:#AD6600;stop-opacity:0"/>
							</radialGradient>
							<polygon id="Shape_7_" class="st9" points="7.4,42.6 4.6,55.5 24,55.5 21.1,39.3 							"/>
							
								<linearGradient id="Shape_53_" gradientUnits="userSpaceOnUse" x1="-546.7155" y1="371.1466" x2="-545.9755" y2="370.38" gradientTransform="matrix(10.32 0 0 -9.8437 5654.7129 3684.1233)">
								<stop  offset="0" style="stop-color:#F8AD0A"/>
								<stop  offset="1" style="stop-color:#F39805"/>
							</linearGradient>
							<polygon id="Shape_8_" class="st10" points="11,35.6 21.1,39.3 21.4,32.9 12.3,29.4 							"/>
							
								<linearGradient id="Shape_54_" gradientUnits="userSpaceOnUse" x1="-561.0922" y1="373.1519" x2="-560.9655" y2="372.2776" gradientTransform="matrix(13.7075 0 0 -10.3879 7704.5317 3912.499)">
								<stop  offset="0" style="stop-color:#B65E06"/>
								<stop  offset="1" style="stop-color:#8F4D05"/>
							</linearGradient>
							<polygon id="Shape_9_" class="st11" points="21.1,39.3 17.2,46 7.4,42.6 11,35.6 							"/>
							
								<linearGradient id="Shape_55_" gradientUnits="userSpaceOnUse" x1="-478.7933" y1="380.2003" x2="-478.5061" y2="380.1224" gradientTransform="matrix(4.8201 0 0 -13.1814 2317.052 5047.1553)">
								<stop  offset="0" style="stop-color:#DC780B"/>
								<stop  offset="1" style="stop-color:#C76E0B"/>
							</linearGradient>
							<polygon id="Shape_10_" class="st12" points="11,35.6 12.3,29.4 9,36.2 7.4,42.6 							"/>
							<polygon id="Shape_11_" class="st13" points="7.6,10.5 9.3,8.7 11.7,11.1 9.9,12.8 							"/>
							<polygon id="Shape_12_" class="st14" points="11.7,11.1 13.3,9.5 11,7.1 9.3,8.7 							"/>
							<polygon id="Shape_13_" class="st15" points="10.7,23.8 12,23.5 13,24.6 11.7,25 							"/>
							<polygon id="Shape_14_" class="st16" points="10.2,25 11.1,26.1 11.7,25 10.7,23.8 							"/>
							<polygon id="Shape_15_" class="st17" points="12.4,25.8 13,24.6 11.7,25 11.1,26.1 							"/>
							<polygon id="Shape_16_" class="st18" points="22.2,28.9 23.1,28.3 24,28.9 23.1,29.6 							"/>
							<polygon id="Shape_17_" class="st19" points="23.8,29.7 24,28.9 23.1,29.6 23,30.4 							"/>
							<polygon id="Shape_18_" class="st20" points="23.1,29.6 23,30.4 22.1,29.7 22.2,28.9 							"/>
							<polygon id="Shape_19_" class="st21" points="31.1,36.1 32.2,37.3 33.4,36.5 32.3,35.2 							"/>
							<polygon id="Shape_20_" class="st22" points="31.9,38 32.2,37.3 33.4,36.5 33.1,37.2 							"/>
							<polygon id="Shape_21_" class="st23" points="30.9,36.8 31.1,36.1 32.2,37.3 31.9,38 							"/>
							<polygon id="Shape_22_" class="st24" points="31.4,13.7 31.7,12.7 32.8,13.2 32.6,14.3 							"/>
							<polygon id="Shape_23_" class="st25" points="27.7,33.5 30.4,33.7 31.1,30.6 28.5,30.5 							"/>
							<polygon id="Shape_24_" class="st26" points="32.8,32 31.1,30.6 30.4,33.7 32.1,34.9 							"/>
							<polygon id="Shape_25_" class="st27" points="29.4,34.7 27.7,33.5 30.4,33.7 32.1,34.9 							"/>
							<polygon id="Shape_26_" class="st17" points="6.8,18.8 8.1,18.4 8.1,19.4 6.8,19.9 							"/>
							<polygon id="Shape_27_" class="st28" points="31.6,27.5 32.3,26.5 33.1,26.5 32.4,27.6 							"/>
							<polygon id="Shape_28_" class="st29" points="33.2,28.5 33.9,27.5 33.1,26.5 32.4,27.6 							"/>
							<polygon id="Shape_29_" class="st30" points="32.4,28.5 31.6,27.5 32.4,27.6 33.2,28.5 							"/>
							<polygon id="Shape_30_" class="st31" points="31.7,22.6 32.7,21.5 33.7,21.4 32.7,22.6 							"/>
							<polygon id="Shape_31_" class="st32" points="33.7,23.8 34.7,22.7 33.7,21.4 32.7,22.6 							"/>
							<polygon id="Shape_32_" class="st33" points="32.7,23.8 31.7,22.6 32.7,22.6 33.7,23.8 							"/>
							<polygon id="Shape_33_" class="st4" points="9.9,18.2 11.3,17.2 11.9,17.1 10.5,18.2 							"/>
							<polygon id="Shape_34_" class="st5" points="11.4,19.7 12.9,18.6 11.9,17.1 10.5,18.2 							"/>
							<polygon id="Shape_35_" class="st6" points="10.8,19.5 9.9,18.2 10.5,18.2 11.4,19.7 							"/>
							<polygon id="Shape_36_" class="st34" points="26.2,33.1 26.6,32.6 27.1,32.8 26.6,33.3 							"/>
							<polygon id="Shape_37_" class="st17" points="26.9,33.8 27.4,33.3 27.1,32.8 26.6,33.3 							"/>
							<polygon id="Shape_38_" class="st35" points="26.5,33.5 26.2,33.1 26.6,33.3 26.9,33.8 							"/>
							<polygon id="Shape_39_" class="st36" points="29.5,26.5 30.1,25.8 30.6,25.8 30,26.5 							"/>
							<polygon id="Shape_40_" class="st37" points="30.6,27.2 31.2,26.5 30.6,25.8 30,26.5 							"/>
							<polygon id="Shape_41_" class="st33" points="30.1,27.2 29.5,26.5 30,26.5 30.6,27.2 							"/>
							<polygon id="Shape_42_" class="st32" points="39.1,18.6 40.1,18.5 40.9,19 39.9,19 							"/>
							<polygon id="Shape_43_" class="st30" points="39.6,20.1 40.6,20.1 40.9,19 39.9,19 							"/>
							<polygon id="Shape_44_" class="st38" points="38.9,19.7 39.1,18.6 39.9,19 39.6,20.1 							"/>
							<polygon id="Shape_45_" class="st7" points="33.4,28.7 33.7,28.3 34.8,28.9 34.5,29.3 							"/>
							<polygon id="Shape_46_" class="st39" points="34.1,30.3 34.5,29.6 34.8,28.9 34.5,29.3 							"/>
							<polygon id="Shape_47_" class="st20" points="32.9,29.7 33.4,28.7 34.5,29.3 34.1,30.3 							"/>
							<polygon id="Shape_48_" class="st40" points="36.6,26.8 36.3,26.8 35.7,26.4 35.9,26.3 							"/>
							<polygon id="Shape_49_" class="st4" points="36.3,25.6 36.1,25.8 35.7,26.4 35.9,26.3 							"/>
							<polygon id="Shape_50_" class="st41" points="37,26.1 36.6,26.8 35.9,26.3 36.3,25.6 							"/>
							<polygon id="Shape_51_" class="st42" points="34.2,19.7 35.2,19 35.8,20.2 34.8,20.9 							"/>
						</g>
					</g>
				</g>
			</g>
		</g>
	</g>
</g>
</svg>
