<?xml version="1.0" encoding="utf-8"?>
<!-- Generator: Adobe Illustrator 22.0.0, SVG Export Plug-In . SVG Version: 6.00 Build 0)  -->
<svg version="1.1" id="Calque_1" xmlns="http://www.w3.org/2000/svg" xmlns:xlink="http://www.w3.org/1999/xlink" x="0px" y="0px"
	 viewBox="0 0 1045.8 712.7" style="enable-background:new 0 0 1045.8 712.7;" xml:space="preserve">
<style type="text/css">
	.st0{fill:url(#SVGID_1_);}
</style>
<title>Fichier 2</title>
<g>
	<g>
		
			<linearGradient id="SVGID_1_" gradientUnits="userSpaceOnUse" x1="-1114.1" y1="693.4489" x2="-210.6752" y2="693.4489" gradientTransform="matrix(1 0 0 1 0 -54)">
			<stop  offset="0" style="stop-color:#D40076;stop-opacity:0.2"/>
			<stop  offset="0.4516" style="stop-color:#FF5139;stop-opacity:0.3"/>
			<stop  offset="0.5808" style="stop-color:#FF4330;stop-opacity:0.2764"/>
			<stop  offset="0.8241" style="stop-color:#FF1E19;stop-opacity:0.2321"/>
			<stop  offset="1" style="stop-color:#FF0006;stop-opacity:0.2"/>
		</linearGradient>
		<path class="st0" d="M-445.7,805.8c2.1,0.1,3.5-0.6,3.7-1.4c0-0.1,0-0.5-0.4-1.1c-1.8-1.6-5.2-3.7-9.9-6
			c5.4-18.1,2.7-34.7-23.8-43.7l-3.8-1.3c-26.4-9-38.7,2.4-45.5,19.9c-5.2-1-9.2-1.5-11.8-1.4c-0.9,0.1-1.2,0.5-1.2,0.6
			c-0.4,0.7,0.3,2.2,2.1,3.4c-0.9-0.3-2.8-1.1-3.8-3l0,0l0,0c-0.4,0.4-0.8,0.7-1.1,1.2c-2.1,3-1.4,7.1,1.6,9.2
			c11.2,7.9,26.9,15.5,44.1,21.4s34.2,9.5,47.9,10.1c3.6,0.2,6.7-2.6,6.9-6.3c0-0.6-0.1-1.2-0.2-1.8
			C-442.8,806.5-444.8,806.1-445.7,805.8z M-542.4,592.5c9.7,0,17.5-7.9,17.5-17.5c0-9.7-7.9-17.5-17.5-17.5
			c-9.7,0-17.5,7.9-17.5,17.5C-560,584.6-552.1,592.5-542.4,592.5z M-514.6,580.9c0-4-1-7.7-2.7-10.9c0.3,1.6,0.5,3.2,0.5,4.9
			c0,14.1-11.5,25.6-25.6,25.6c-5.4,0-10.4-1.7-14.6-4.5c4.4,5.2,11,8.5,18.5,8.5C-525.3,604.5-514.6,594-514.6,580.9z
			 M-613.5,848.5l7.5-33.9l-113.2-40.1C-682.1,852.5-613.5,848.5-613.5,848.5z M-769.1,762.1c3.6,2.5,9.2,5.8,16.7,7.8
			c11.3,2.9,20.8,1.3,25.7,0.1c0.1-1.7,0.8-11.1-6.1-19c-7.7-8.9-18.6-8.8-20.1-8.8c0,0-0.5,11,10.6,20
			C-742.3,762.1-756.6,753.9-769.1,762.1z M-508.8,681.5l-12.7-3.4l11.5-13c-0.5-0.1-0.7-0.2-1-0.3l-13.4-3.6
			c-0.6-0.3-1.3,0-1.6,0.5c-4.8,6-9.7,12-14.6,18c-0.2,0.2-0.3,0.5-0.4,0.7l13.1,3.6l-11.3,12.9l0.1,0.1l30.4-15.1L-508.8,681.5z
			 M-773.7,637.6c4.9,4.9,10.6,8.8,16.9,11.6c7,3.3,14.8,4.2,22.3,2.7c8.3-2.6,15.8-7.2,21.9-13.5c5.5-5,8.1-7.3,11.8-5.7
			c3.7,1.6,3.8,5.3,4.1,12.3c-0.5,8.7,1.4,17.4,5.4,25.1c4.2,6.5,10.3,11.4,17.5,14.1c6.3,2.8,13.1,4.2,20,4.1
			c14.1,0,24.3-16.9,27.5-22.2c0.3-0.3,0.6-0.6,0.8-1c0.9-1.2,2.2-1.9,3.6-2.2c1.8-0.5,3.3-1.6,4.4-3.1c2.2-4.4,4.8-10.4,1.8-13
			c-1.7-1.8-12.8-7.1-23-11.5c-7.8-3.4-15.7-6.2-23.9-8.5c-6.8-1.8-13.7-3.3-20.6-4.4c-8.5-0.5-16.5-3.9-22.7-9.7
			c-4.4-3.1-9.8-6.9-17.5-11.8c-7.3-4.3-14.9-8-22.7-11.3c-9.9-4.2-21.8-8.6-24.2-8.6c-3.9-0.3-6.2,5.4-8.1,10.3
			c-0.5,1.8-0.3,3.7,0.7,5.3c0.7,1.3,1,2.7,1,4.1c0,0.4,0,0.7-0.2,1.3C-778.4,608.6-783.4,627.4-773.7,637.6z M-686.8,639.9
			c0.2-2,1.2-3.9,2.9-5.2c2.9-2.1,8.6-2.1,17.1,0c5.8,1.4,11.5,3.3,17.1,5.6c8.8,3.7,15,8.1,15.9,11.5c1.8,6-6.2,20.3-11.4,24.5l0,0
			c-3.8,2.7-10,6.2-23.2,0.9l-1.7-0.7C-680.7,672-690.3,665.6-686.8,639.9z M-761.1,597.7c3.4-1.6,10.5-0.2,19.3,3.5
			c5.5,2.4,10.8,5.2,15.9,8.4c7.1,4.7,11.3,8.8,11.8,12.3c0.4,2-0.2,4.1-1.6,5.6l-0.1,0.1c-15.7,20.5-27.4,17.9-37.9,13.4l-1.7-0.7
			c-13-5.8-15-12.7-15.4-17.3C-771.5,616-766.7,600.6-761.1,597.7z M-801,882.2c-41.4-63-73.3-69.8-110.4-44.9
			c-19.4-61.4-67-54.2-121.6-33.1c-50.3,19.4-81.1-42.8-81.1-42.8s7,81.6,72,108.8c65.1,27.3,91.1-17.3,117.8-5.6
			c26.2,11.4,39,64.3,91.4,83.9c62.5,23.4,124.3-27,124.3-27S-756.7,949.6-801,882.2z M-242.6,739.8c-3.9-1.1-7.9,1.2-9,5v0.2
			c-1.1,4,1.3,8.1,5.3,9.2l0,0c4,1,8.1-1.4,9.2-5.4C-236.2,744.9-238.6,740.8-242.6,739.8z M-226.6,684.4v-0.2
			c-3.3-0.7-6.7-0.5-9.9,0.6c-6.9,1.9-12.2,7.3-13.9,14.3c-0.9,3.4,1.1,6.9,4.5,7.8c0.7,0.2,1.5,0.3,2.2,0.2
			c2.9-0.3,5.3-2.5,5.9-5.3c1.6-3.9,6.1-5.7,9.9-4l0,0l0.2,0.1c3.5,1.8,5.6,8.2,0.7,11.4c-1.3,0.7-2.6,1.2-4.1,1.4
			c-3.3,0.9-6.5,2-9.6,3.5c-4.1,1.6-7.2,5.2-8.1,9.5c-0.3,1.4-0.1,2.8,0.4,4.1c1.2,3,4,5.1,7.2,5.3c3.5,0.2,7-1.5,7.9-4.2
			c0.5-1.5,1.8-2.7,3.3-3.1c2.6-1,5.2-1.7,7.7-2.9c10.2-4.9,14.5-17.2,9.6-27.4C-215.3,689.9-220.5,685.8-226.6,684.4z
			 M-869.1,654.4v0.2c-0.9,3.4,1.1,6.9,4.5,7.9l0,0c3.4,0.9,6.9-1.2,7.9-4.6c0.8-3.4-1.2-6.9-4.7-7.8
			C-864.7,649.2-868.1,651.1-869.1,654.4z M-856.1,603c-5.9,1.6-10.4,6.3-11.9,12.2c-0.8,2.9,1,5.9,3.9,6.7c0.6,0.2,1.3,0.2,1.9,0.2
			c2.5-0.3,4.5-2.1,5-4.6c1.4-3.3,5.2-4.8,8.5-3.5l0,0l0.2,0.1c3,1.6,4.8,7.1,0.6,9.7c-1.1,0.6-2.3,1-3.5,1.2
			c-2.8,0.7-5.6,1.7-8.2,3c-3.6,1.3-6.2,4.4-6.9,8.1c-0.2,1.2-0.1,2.4,0.3,3.5c1,2.6,3.4,4.3,6.2,4.5c3,0.2,6-1.3,6.8-3.6
			c0.4-1.3,1.5-2.3,2.9-2.6c2.2-0.8,4.5-1.5,6.6-2.5c8.7-4.2,12.4-14.7,8.2-23.4c-2.3-4.9-6.8-8.4-12.1-9.5v-0.2
			C-850.5,601.9-853.4,602.1-856.1,603z M-633.4,429.7c0.2,0,0.4,0,0.6,0c1-0.2,2.1-0.4,3.3-0.7c0.2,1.2,0.3,2.1,0.4,3.1
			c0,1.4,1.1,2.5,2.5,2.4c0.3,0,0.5-0.1,0.9-0.2c1.4,0,2.5-1.2,2.4-2.6c0-0.2-0.1-0.5-0.1-0.8c-0.2-1-0.4-2-0.6-3.1l3-0.4
			c1.4,0,2.5-1.2,2.5-2.5c0-0.3-0.1-0.5-0.1-0.8c-0.1-1.4-1.3-2.4-2.7-2.4c-0.2,0-0.4,0.1-0.7,0.1l-2.9,0.5l-0.5-3
			c-0.3-1.4-1.8-2.4-3.4-2.1c-1.3,0.4-2.3,1.7-2.1,3.1c0.2,1,0.5,2,0.8,3.1c-1.4,0.2-2.4,0.3-3.4,0.4c-1.4,0.1-2.4,1.3-2.3,2.7
			c0,0.2,0,0.3,0.1,0.5C-635.9,428.6-634.8,429.8-633.4,429.7z M-562.3,417.7c-5.6-12.6-15.6-22.8-28.2-28.4
			c-25.4-11.8-55.6-3.9-71.8,19.1c-2.8,4-5.1,8.2-6.9,12.8c-4.1,10.6-5,22.2-2.5,33.2c2.4,10.8,7.8,20.6,15.6,28.4
			c3.6,3.3,5.9,7.8,6.6,12.6c0.5,2.8,1,5.6,1.4,8.5c0,1,0.9,1.9,2,1.9c0.2,0,0.4,0,0.5-0.1l3.3-0.6c9.7-1.7,19.3-3.4,29-5.1
			c5.4-0.8,10.8-2,16.1-3.5c19.4-6.8,32.1-20.3,37.7-40.2C-555.5,443.6-556.6,429.8-562.3,417.7z M-583.8,463.1
			c0,0.1-0.2,0.3-0.2,0.4c-12.2,17-35.8,20.9-52.7,8.8c-16.9-12.1-20.9-35.8-8.8-52.7c11.9-17,35.4-21,52.4-9.1
			C-576.1,422.4-571.9,446-583.8,463.1z M-590.8,444.4L-590.8,444.4c-1,0.2-2,0.4-3.2,0.8c-0.1-1.3-0.1-2.2-0.4-3.2
			c-0.3-1.5-1.8-2.5-3.4-2.2c-1.3,0.4-2.3,1.7-2.2,3c0.2,1,0.4,2,0.6,3.2c-1.2,0.2-2.1,0.3-3.1,0.4c-1.5,0.3-2.6,1.8-2.2,3.3
			c0.3,1.5,1.8,2.6,3.3,2.2c1-0.2,1.9-0.4,3-0.6l0.5,3c0.3,1.5,1.8,2.5,3.4,2.2c1.4-0.3,2.3-1.6,2.2-3c-0.2-1-0.4-1.9-0.8-3.3
			c1.3-0.1,2.2-0.1,3.2-0.3c1.5-0.3,2.5-1.8,2.2-3.4C-588.1,445.1-589.3,444.3-590.8,444.4z M-609.2,460.1c-0.5-0.2-1-0.3-1.5-0.2
			l-0.2-0.1c-1,0-2.1,0.1-3.2,0.2c-0.5,0.2-1-0.2-1.2-0.6l0.1-0.2c-0.3-1.3-0.7-2.6-1.1-3.9c-0.4-2.2-2.5-3.7-4.8-3.3
			c-1.3,0.1-2.6,0.2-3.9,0.3c-0.6,0.2-1.3-0.1-1.4-0.8l0,0l0.1-0.2c-0.3-1.2-0.8-2.5-1.2-3.7c-0.4-1.3-1.3-2.6-2.4-3.3
			c-0.7-0.4-1.3-0.9-1.9-1.3c-0.9-0.6-1.8-1.3-2.7-1.9c-1.3-0.8-3-0.4-3.9,0.9c-0.8,1.2-0.6,2.9,0.6,3.8c0.7,0.5,1.3,1,2,1.5
			c2.1,1,3.5,2.9,3.8,5.2c0.2,1,0.5,2,1,3c0.4,1.7,1.8,2.9,3.6,2.9c1.6,0,3.4,0,5-0.2c0.7-0.2,1.4,0.2,1.6,0.9c0,0,0,0.1,0.1,0.1
			l-0.1,0.2c0.4,1.3,0.8,2.7,1.2,4c0.5,1.6,1.9,2.6,3.5,2.6c2.1-0.1,4.2-0.2,6.2-0.5c1,0,2-0.8,2.2-1.9
			C-607,462.4-607.7,460.7-609.2,460.1z M-1059.5,631.2l-0.1,0.3l2.4,0.5l0.5-2.4l3.7,0.8c0.1,7.3,2.2,14.7,6.5,21.3
			c4.8,7.4,11.7,12.7,19.4,15.5c2.8,1,5.2,2.9,6.8,5.4l3.8,5.8c0.4,0.5,1.1,0.7,1.6,0.3l23.8-15.5c5-3.3,9.1-7.5,12.1-12.3l5.6,1.2
			l0.5-2.4l2.2,0.5c2.8-0.5,5.2-2.6,6.3-5.3c0.1-0.3,0.3-0.7,0.4-1.1l1.6-7.4c0.8-3.9-0.6-7.7-3.4-10.2
			c-0.9-20.9-15.8-39.3-37.2-43.7c-21.2-4.4-42.1,6.2-51.4,24.7c-4,0.8-7.3,3.9-8.2,8.2l-1.6,7.4c-0.1,0.4-0.1,0.9-0.1,1.3
			C-1064.2,627-1062.4,629.7-1059.5,631.2z M-991.7,644.4l-7.6-1.6c-0.5-1.3-1.6-2.4-3.1-2.7c-2.3-0.5-4.5,1-5,3.3s1,4.5,3.3,5
			c1.8,0.4,3.5-0.4,4.5-1.9l5.3,1.1c-1.3,1.3-2.7,2.6-4.4,3.6c-11.9,7.8-27.8,4.4-35.6-7.5c-7.8-11.9-4.4-27.8,7.5-35.6
			c3.9-2.6,8.3-3.9,12.7-4.1c-1.6,2.2-3.2,5.7-2.8,10.2c0,0,5.1-4.7,10.7-7.2l-0.8,6.6l4.4-4.1l1.1,5.7l6.2-3.7l1,8
			c0,0,2.2,0.1,4.5-1.5C-985.6,626.6-986.4,636.7-991.7,644.4z M-972.5,648.4l-4.5-0.9c0.2-0.4,0.4-0.8,0.5-1.2l4.2,0.9
			L-972.5,648.4z M-1003.5,586c21.8,4.6,36.2,24.8,34,46.5l-3.5-0.7c0.4-8.2-1.6-16.5-6.5-23.9c-12.1-18.4-36.9-23.7-55.4-11.6
			c-7.4,4.8-12.6,11.7-15.5,19.3l-3-0.6C-1046.6,594.2-1025.3,581.4-1003.5,586z M-1023.4,623.7l-2.2-0.5c0.3,0.5,0.4,1.1,0.2,1.6
			c-0.3,1.4-1.6,2.2-3,1.9c-1.4-0.3-2.2-1.6-1.9-3c0.3-1.4,1.6-2.2,3-1.9c0.6,0.1,1.2,0.5,1.5,1l0.5-2.2c0.2-0.9-0.3-1.3-1.2-1.5
			l-0.6-0.1c-0.9-0.2-1.6,0-1.8,0.9l-0.5,2.5l-2.4-0.5c-0.9-0.2-1.4,0.3-1.6,1.2l-0.1,0.6c-0.2,0.9,0,1.6,0.9,1.8l2.4,0.5l-0.5,2.4
			c-0.2,0.9,0.4,1.4,1.3,1.6l0.6,0.1c0.9,0.2,1.5,0,1.7-0.9l0.5-2.4l2.5,0.5c0.9,0.2,1.3-0.4,1.5-1.3l0.1-0.6
			C-1022.4,624.6-1022.5,623.9-1023.4,623.7z M-1013.1,633.5l-3-0.6c-1.5-0.3-3,0.7-3.3,2.2l-0.1,0.6c-0.3,1.5,0.7,3,2.2,3.3l3,0.6
			c1.5,0.3,3-0.7,3.3-2.2l0.1-0.6C-1010.6,635.3-1011.6,633.8-1013.1,633.5z M-995.4,629.6l-2.2-0.5c0.3,0.5,0.4,1.1,0.2,1.6
			c-0.3,1.4-1.6,2.2-3,1.9c-1.4-0.3-2.2-1.6-1.9-3c0.3-1.4,1.6-2.2,3-1.9c0.6,0.1,1.2,0.5,1.5,1l0.5-2.2c0.2-0.9-0.3-1.3-1.2-1.5
			l-0.6-0.1c-0.9-0.2-1.6,0-1.8,0.9l-0.5,2.5l-2.4-0.5c-0.9-0.2-1.4,0.3-1.6,1.2l-0.1,0.6c-0.2,0.9,0,1.6,0.9,1.8l2.4,0.5l-0.5,2.4
			c-0.2,0.9,0.4,1.4,1.3,1.6l0.6,0.1c0.9,0.2,1.5,0,1.7-0.9l0.5-2.4l2.5,0.5c0.9,0.2,1.3-0.4,1.5-1.3l0.1-0.6
			C-994.3,630.4-994.4,629.8-995.4,629.6z M-871.9,494.8c0.9,1.8,3.1,2.5,4.9,1.5l4.4-2.3l2.3,4.4c0.9,1.8,3.1,2.5,4.9,1.5l1.2-0.7
			c1.8-0.9,2.5-3.1,1.5-4.9l-2.3-4.4l4.4-2.3c1.8-0.9,2.5-3.1,1.5-4.9l-0.7-1.2c-0.9-1.8-3.1-2.5-4.9-1.5l-4.4,2.3l-2.3-4.4
			c-0.9-1.8-3.1-2.5-4.9-1.5l-1.2,0.7c-1.8,0.9-2.5,3.1-1.5,4.9l2.3,4.4l-4.4,2.3c-1.8,0.9-2.5,3.1-1.5,4.9L-871.9,494.8z
			 M-818.2,511.4c0.9,1.8,3.1,2.5,4.9,1.5l4.4-2.3l2.3,4.4c0.9,1.8,3.1,2.5,4.9,1.5l1.2-0.7c1.8-0.9,2.5-3.1,1.5-4.9l-2.3-4.4
			l4.4-2.3c1.8-0.9,2.5-3.1,1.5-4.9l-0.7-1.2c-0.9-1.8-3.1-2.5-4.9-1.5l-4.4,2.3l-2.3-4.4c-0.9-1.8-3.1-2.5-4.9-1.5l-1.2,0.7
			c-1.8,0.9-2.5,3.1-1.5,4.9l2.3,4.4l-4.4,2.3c-1.8,0.9-2.5,3.1-1.5,4.9L-818.2,511.4z M-739.8,332.6c0.5-0.6,0.6-1.3,0.4-1.5
			c-0.1,0-0.2-0.1-0.4-0.1c-1,0.2-2.5,0.8-4.3,1.6c-7.2-8.8-3.8-12.4-19.6-2l-1.4,0.8c-15.8,10.4-11.1,8.6-4.6,17.9
			c-1.6,1.4-2.7,2.5-3.2,3.3c-0.2,0.3-0.1,0.5-0.1,0.6c0.1,0.3,0.8,0.4,1.6,0.2c-0.3,0.2-1.1,0.6-2,0.5l0,0l0,0c0,0.2,0,0.4,0.1,0.6
			c0.5,1.3,2.1,2.1,3.5,1.7c5.3-1.6,11.5-4.7,17.5-8.6c6-3.9,11.2-8.4,14.6-12.4c0.9-1.1,0.7-2.7-0.5-3.6c-0.2-0.1-0.5-0.3-0.7-0.4
			C-738.9,331.9-739.5,332.4-739.8,332.6z"/>
	</g>
</g>
</svg>
