<?xml version="1.0" encoding="UTF-8"?>
<svg width="1065px" height="730px" viewBox="0 0 1065 730" version="1.1" xmlns="http://www.w3.org/2000/svg" xmlns:xlink="http://www.w3.org/1999/xlink">
    <!-- Generator: Sketch 46.2 (44496) - http://www.bohemiancoding.com/sketch -->
    <title>bg</title>
    <desc>Created with Sketch.</desc>
    <defs>
        <polygon id="path-1" points="0 25.1094182 0 0.140678857 19.8890374 0.140678857 19.8890374 25.1094182"></polygon>
        <polygon id="path-3" points="65 0 0 0 0 79 65 79"></polygon>
        <polygon id="path-5" points="55 0 0 0 0 67 55 67"></polygon>
        <polygon id="path-7" points="62.4698973 0 0 0 0 75.1126147 62.4698973 75.1126147"></polygon>
        <polygon id="path-9" points="23.8724367 0 0 0 0 28.7037632 23.8724367 28.7037632"></polygon>
        <polygon id="path-11" points="23.8724367 0 0 0 0 28.7037632 23.8724367 28.7037632"></polygon>
        <polygon id="path-13" points="23.8724367 0 0 0 0 28.7037632 23.8724367 28.7037632"></polygon>
        <polygon id="path-15" points="30.9482929 0.0532438479 0 0.0532438479 0 68 61.8965858 68 61.8965858 0.0532438479"></polygon>
        <polygon id="path-17" points="39.2643683 0.0675509328 0 0.0675509328 0 86.2721913 78.5287366 86.2721913 78.5287366 0.0675509328"></polygon>
        <polygon id="path-19" points="16.8348152 0 0 0 0 20.2418611 16.8348152 20.2418611"></polygon>
        <polygon id="path-21" points="3.85271421e-05 0.0252448302 53.2036375 0.0252448302 53.2036375 59.4899912 3.85271421e-05 59.4899912"></polygon>
        <polygon id="path-23" points="3.28960404e-05 0.0215550624 45.4274289 0.0215550624 45.4274289 50.7949732 3.28960404e-05 50.7949732"></polygon>
        <polygon id="path-25" points="0 22.7579658 0 0.127504533 18.0264645 0.127504533 18.0264645 22.7579658"></polygon>
    </defs>
    <g id="Symbols" stroke="none" stroke-width="1" fill="none" fill-rule="evenodd">
        <g id="bg">
            <g id="Page-1-Copy-5" opacity="0.28759058" transform="translate(938.391915, 382.736613) rotate(38.000000) translate(-938.391915, -382.736613) translate(921.891915, 364.236613)" fill="#1D1D1B">
                <g id="Group-3">
                    <path d="M27.2157,16.5821736 C27.2149027,10.5653727 22.3949297,5.72904854 16.4052461,5.73474273 C10.5075234,5.74034795 5.6863101,10.5937547 5.67780504,16.533595 C5.6692114,22.4834892 10.4960062,27.3574484 16.4035628,27.3643882 C22.3650734,27.371328 27.2164974,22.5332243 27.2157,16.5821736 M0.000416393219,16.5359083 C0.0219448086,12.9644059 1.04077928,9.7047494 3.15463933,6.83256466 C5.76232401,3.28926632 9.24221959,1.09469012 13.5758099,0.325529692 C17.5583895,-0.381350543 21.3174458,0.29839332 24.7976957,2.35390673 C28.1500155,4.33370522 30.5464028,7.17341528 31.843069,10.860225 C33.7898402,16.395422 33.0533557,21.6119223 29.6477908,26.377425 C28.7479385,27.6366416 27.5784937,28.7083059 26.4883408,29.8222317 C24.5314698,31.8217819 22.5410217,33.7882346 20.5641284,35.7679441 C20.3419339,35.9905513 20.1177903,36.2111122 19.8922292,36.4303385 C19.584807,36.7291945 19.3282379,36.7339989 19.0223218,36.4308723 C18.439637,35.8536239 17.8542059,35.2785997 17.2869366,34.686315 C16.2935287,33.6492608 15.076243,33.0775286 13.6751241,32.8400631 C10.5156741,32.3046313 7.74851966,30.9529731 5.37552129,28.7847326 C2.93926658,26.5586604 1.33110281,23.8339018 0.50283468,20.6424865 C0.154216101,19.2988358 -0.0094175743,17.9267141 0.000416393219,16.5359083" id="Fill-1"></path>
                </g>
                <path d="M12.7934857,20.2017133 C13.0186232,20.2017133 13.2441166,20.2085674 13.4689872,20.2002001 C13.8941678,20.1846225 14.2617737,20.3272238 14.5931619,20.5837636 C14.8861966,20.8105725 15.1895538,21.0249195 15.4732448,21.2627663 C15.6586941,21.4182746 15.8012515,21.3956649 15.9714839,21.2450524 C16.2493908,20.9991053 16.5408237,20.7685577 16.8257606,20.5306219 C17.3789048,20.0689037 17.9046409,20.0594681 18.4730018,20.5075672 C18.7727105,20.7438117 19.0726862,20.9802342 19.3610936,21.2299199 C19.5097911,21.3586349 19.6201352,21.3540951 19.7659852,21.2257362 C19.9936143,21.0253646 20.231477,20.8348735 20.4777044,20.6579127 C21.014297,20.2722128 21.5276639,20.4222022 21.7908879,21.0162851 C21.9320215,21.33469 21.8472167,21.5944343 21.6057946,21.801126 C21.1529389,22.1886952 20.6899388,22.5649595 20.2203536,22.9320553 C19.8679644,23.2076443 19.3492583,23.1899304 18.9663466,22.9021465 C18.6433232,22.6594039 18.3214567,22.4139909 18.0140951,22.1520212 C17.8146748,21.9820925 17.6512054,21.9830717 17.4495606,22.1465023 C17.0747467,22.4502198 16.7026914,22.7628388 16.2980668,23.0228501 C15.8691487,23.29835 15.4211874,23.2513504 15.0089099,22.9433602 C14.7752296,22.7686247 14.5125395,22.6205046 14.315522,22.4109644 C13.8335675,21.8982408 13.2522145,21.7509218 12.5781368,21.825694 C12.3448125,21.8515972 12.105348,21.8351295 11.8694431,21.8235577 C11.4213038,21.8014821 11.1128743,21.4857476 11.0982804,21.0472621 C11.0835975,20.6077975 11.4017266,20.2375861 11.8479972,20.2084784 C12.1618549,20.1880941 12.4782042,20.2045618 12.7934857,20.2045618 L12.7934857,20.2017133 Z" id="Fill-4"></path>
                <path d="M20.4270616,15.1336114 C20.1721273,14.8935027 19.9564549,14.7101487 19.7639096,14.5049177 C19.4029319,14.1201879 19.4233697,13.7553627 19.8081018,13.382468 C20.1712309,13.0303745 20.5361527,13.02365 20.9077078,13.3865924 C21.1088586,13.5831264 21.2812351,13.8091585 21.5130424,14.0750891 C21.7654669,13.7948129 21.9416082,13.5703051 22.1471513,13.3771781 C22.5279393,13.019436 22.8850625,13.0327056 23.2477433,13.3917927 C23.6278142,13.768184 23.6428736,14.1235054 23.2653127,14.5166631 C23.0712434,14.7188457 22.8405117,14.8857023 22.5693527,15.117114 C22.8616666,15.3795479 23.0876474,15.5534877 23.2784896,15.7599739 C23.6443975,16.1562698 23.619657,16.5123084 23.2286502,16.8840374 C22.8622941,17.232455 22.5116249,17.2329033 22.1278788,16.8700505 C21.9304033,16.6834687 21.7504075,16.4785963 21.5158213,16.2330184 C21.305617,16.4578849 21.1233801,16.6699301 20.9232155,16.8634157 C20.5249478,17.2482351 20.1820772,17.244559 19.8019167,16.8672711 C19.4176328,16.4858588 19.4040076,16.1394137 19.7763695,15.7448215 C19.9625504,15.5474805 20.1716791,15.3718372 20.4270616,15.1336114" id="Fill-6"></path>
                <path d="M11.1065185,16.2062055 C10.8614501,16.464521 10.6681264,16.6857676 10.4564764,16.887627 C10.0813277,17.245481 9.73178182,17.2318382 9.35663312,16.8618673 C9.00178701,16.5119117 8.9900187,16.1182454 9.33812722,15.7594938 C9.53522402,15.5563778 9.75028772,15.3706743 10.0481788,15.0920741 C9.78783852,14.8745973 9.54798052,14.7022673 9.34216977,14.4960996 C8.98337095,14.1367197 8.99774446,13.7564269 9.35537544,13.3958803 C9.71300642,13.0354233 10.0891433,13.0204342 10.4532424,13.3650045 C10.6588734,13.5595937 10.8497717,13.7697107 11.0775918,14.0039718 C11.2937335,13.7929573 11.492088,13.5985475 11.6913409,13.405125 C12.0793359,13.0283327 12.4534066,13.0194469 12.8207397,13.3774804 C13.210711,13.7576835 13.2161011,14.1272057 12.8233449,14.5237442 C12.6325365,14.7163588 12.4234019,14.8909327 12.1762673,15.1157695 C12.4225933,15.3494023 12.6302906,15.5368112 12.8269382,15.7350804 C13.2055905,16.1169888 13.2070278,16.482831 12.8407727,16.8607005 C12.4717328,17.241442 12.1008063,17.2504176 11.7180217,16.8723686 C11.5175112,16.6744584 11.3358659,16.4575201 11.1065185,16.2062055" id="Fill-8"></path>
            </g>
            <g id="Page-1-Copy-9" opacity="0.28759058" transform="translate(238.289310, 602.381163) rotate(20.000000) translate(-238.289310, -602.381163) translate(207.789310, 568.381163)" fill="#1D1D1B">
                <g id="Group-3">
                    <path d="M50.3106588,30.6536329 C50.3091848,19.5310377 41.3990331,10.5906593 30.3265666,10.6011855 C19.4240981,10.6115473 10.5116535,19.5835043 10.4959311,30.5638311 C10.480045,41.5627433 19.4028074,50.5726934 30.3234549,50.5855222 C41.3438411,50.5983511 50.3121328,41.6546832 50.3106588,30.6536329 M0.000769740156,30.5681074 C0.040566944,23.9658654 1.92397371,17.9400984 5.83163331,12.6306077 C10.652172,6.08050336 17.0850706,2.02363273 25.0961004,0.601770789 C32.4582555,-0.70496063 39.4072076,0.551606776 45.8407613,4.3514074 C52.0378247,8.01124221 56.4677612,13.2607006 58.8647648,20.0760985 C62.4635457,30.3084058 61.1020883,39.9515738 54.8065964,48.7610324 C53.1431388,51.0888071 50.9813154,53.0698744 48.9660702,55.129066 C45.348619,58.8254137 41.6690972,62.4605776 38.014633,66.120248 C37.6038866,66.5317573 37.1895371,66.9394839 36.7725672,67.3447433 C36.2042697,67.8972053 35.7299787,67.9060868 35.1644654,67.3457301 C34.0873205,66.2786347 33.0050986,65.215651 31.9564504,64.1207598 C30.120047,62.2036721 27.8697853,61.1467739 25.2796916,60.7077977 C19.4391653,59.7180041 14.3238325,57.2193429 9.93713251,53.211156 C5.4334975,49.0960622 2.46066275,44.0591019 0.929534937,38.159485 C0.285082275,35.6756263 -0.0174092295,33.1391364 0.000769740156,30.5681074" id="Fill-1"></path>
                </g>
                <path d="M23.649904,37.3446762 C24.0660909,37.3446762 24.4829357,37.3573467 24.898629,37.3418789 C25.6846135,37.3130824 26.364166,37.5766936 26.9767667,38.0509304 C27.5184676,38.4702071 28.0792505,38.8664466 28.6036788,39.3061276 C28.9464983,39.5935987 29.2100285,39.5518027 29.5247184,39.2733819 C30.0384541,38.8187267 30.577194,38.3925389 31.1039253,37.9526933 C32.1264618,37.0991657 33.0983321,37.0817233 34.1489982,37.9100745 C34.7030367,38.3467936 35.2575686,38.7838418 35.7907155,39.2454082 C36.0655962,39.4833494 36.2695771,39.4749573 36.5391938,39.2376743 C36.9599866,38.8672693 37.399697,38.5151296 37.8548705,38.1880016 C38.8468099,37.4750009 39.7958146,37.7522698 40.2824077,38.8504851 C40.5433059,39.4390851 40.3865367,39.9192458 39.9402462,40.3013339 C39.103102,41.0177902 38.2472048,41.7133485 37.3791344,42.391958 C36.7277116,42.9014088 35.7688369,42.8686631 35.0609902,42.3366688 C34.4638526,41.8879374 33.8688535,41.4342695 33.300668,40.949995 C32.9320219,40.6358666 32.6298341,40.6376767 32.2570754,40.9397929 C31.5641984,41.5012419 30.8764208,42.079146 30.128436,42.5598003 C29.3355426,43.0690866 28.5074459,42.9822035 27.7453141,42.412856 C27.3133352,42.0898418 26.827729,41.8160285 26.4635244,41.4286748 C25.5725885,40.4808593 24.4979053,40.2085269 23.2518123,40.34675 C22.8204914,40.3946344 22.3778199,40.3641924 21.9417285,40.3428008 C21.1133029,40.3019921 20.5431434,39.7183286 20.5161653,38.907749 C20.4890226,38.0953592 21.0771127,37.4109904 21.9020838,37.3571821 C22.4822779,37.3194999 23.067078,37.3499419 23.649904,37.3499419 L23.649904,37.3446762 Z" id="Fill-4"></path>
                <path d="M37.7612527,27.9758359 C37.2899838,27.5319736 36.8912942,27.1930272 36.5353569,26.8136393 C35.8680573,26.102432 35.9058383,25.4280198 36.6170501,24.7386907 C37.2883267,24.0878142 37.9629174,24.0753834 38.6497704,24.7463149 C39.0216155,25.1096257 39.3402689,25.5274662 39.7687856,26.0190628 C40.2354148,25.5009471 40.5610278,25.0859243 40.9409926,24.7289118 C41.6449133,24.0675934 42.3050875,24.0921235 42.9755356,24.7559281 C43.6781306,25.4517212 43.7059693,26.1085645 43.008014,26.8353518 C42.6492597,27.2091044 42.2227315,27.5175539 41.7214696,27.9453391 C42.2618382,28.4304716 42.679584,28.7520149 43.0323729,29.1337232 C43.7087863,29.8663115 43.6630514,30.5244808 42.9402401,31.2116553 C42.2629981,31.8557363 41.6147547,31.856565 40.9053657,31.1857992 C40.5403145,30.840886 40.2075761,30.4621611 39.7739225,30.0081884 C39.385341,30.4238742 39.0484599,30.8158587 38.6784376,31.1735342 C37.9422041,31.8849072 37.3083772,31.8781117 36.6056164,31.1806611 C35.8952331,30.4755863 35.8700458,29.8351517 36.5583901,29.1057125 C36.9025622,28.7409101 37.2891552,28.4162176 37.7612527,27.9758359" id="Fill-6"></path>
                <path d="M20.5313942,29.9586222 C20.0783633,30.4361415 19.720987,30.8451357 19.3297331,31.2182909 C18.6362371,31.8798161 17.9900702,31.8545962 17.2965743,31.1706718 C16.6406095,30.5237476 16.6188547,29.7960201 17.2623645,29.1328357 C17.6267156,28.7573576 18.02428,28.414068 18.5749584,27.8990506 C18.0936961,27.4970252 17.6502971,27.1784577 17.2698375,26.7973383 C16.6065657,26.1329924 16.6331364,25.4299871 17.2942493,24.7634843 C17.9553622,24.0971475 18.6506849,24.0694387 19.3237546,24.7064077 C19.7038821,25.0661234 20.0567746,25.4545434 20.4779206,25.887596 C20.8774779,25.4975168 21.2441539,25.1381329 21.6124906,24.7805742 C22.3297342,24.0840397 23.0212373,24.0676136 23.7002854,24.7294706 C24.4211825,25.43231 24.4311465,26.1154049 23.7051014,26.8484418 C23.352375,27.2045073 22.9657709,27.5272227 22.5089205,27.9428536 C22.9642763,28.3747448 23.3482233,28.7211869 23.7117441,29.0877053 C24.4117167,29.7936972 24.4143737,30.4699893 23.7373184,31.1685148 C23.055115,31.8723497 22.3694242,31.8889418 21.6618125,31.1900845 C21.2911509,30.8242297 20.9553633,30.4231997 20.5313942,29.9586222" id="Fill-8"></path>
            </g>
            <g id="Group-7-Copy" opacity="0.278759058" transform="translate(419.441397, 412.838970) rotate(-27.000000) translate(-419.441397, -412.838970) translate(371.941397, 388.838970)" fill-rule="nonzero" fill="#181716">
                <g id="top1">
                    <path d="M93.3356074,33.4269364 C91.9681607,34.7913012 90.2588523,34.9049982 89.3472211,34.9049982 C91.1704834,34.45021 92.0821146,33.4269364 91.9681607,32.631057 C91.9681607,32.5173599 91.8542068,32.1762687 91.2844373,31.8351776 C89.3472211,31.0392981 85.8146505,30.2434187 81.2564948,29.6749334 C80.5727714,13.0751622 73.621584,0 48.8935894,0 L45.4749726,0 C20.8609319,0 13.7957906,13.0751622 13.1120672,29.5612363 C8.43995765,30.1297216 4.90738699,30.9256011 2.85621693,31.7214805 C2.17249358,32.0625717 2.05853969,32.5173599 2.05853969,32.631057 C1.94458579,33.3132394 2.97017082,34.3365129 4.7934331,34.9049982 C3.99575585,34.9049982 2.17249358,34.7913012 0.805046871,33.4269364 C0.805046871,33.4269364 0.805046871,33.4269364 0.805046871,33.4269364 C0.805046871,33.4269364 0.805046871,33.4269364 0.805046871,33.4269364 C0.577139087,33.8817247 0.349231302,34.2228159 0.23527741,34.7913012 C-0.676353728,37.8611219 1.14690855,41.0446396 4.22366364,41.9542161 C15.8469606,45.365128 31.1167822,47.184281 47.184281,47.184281 C63.2517798,47.184281 78.5216014,45.365128 90.1448984,41.9542161 C93.2216535,41.0446396 95.0449158,37.8611219 94.1332846,34.7913012 C93.7914229,34.3365129 93.5635152,33.8817247 93.3356074,33.4269364 Z" id="Shape"></path>
                </g>
            </g>
            <g id="Group-7-Copy-2" opacity="0.211277174" transform="translate(1031.596566, 184.969537) rotate(-17.000000) translate(-1031.596566, -184.969537) translate(1002.096566, 169.969537)" fill-rule="nonzero" fill="#181716">
                <g id="top1">
                    <path d="M57.5689689,20.6175791 C56.7255341,21.4591129 55.6712406,21.5292407 55.1089508,21.5292407 C56.2335305,21.2487294 56.7958203,20.6175791 56.7255341,20.1266843 C56.7255341,20.0565565 56.6552479,19.846173 56.3038167,19.6357896 C55.1089508,19.1448948 52.9300776,18.6540001 50.1186284,18.303361 C49.696911,8.06469929 45.4094509,0 30.1573387,0 L28.0487518,0 C12.8669259,0 8.50917952,8.06469929 8.08746214,18.2332332 C5.20572666,18.5838723 3.02685349,19.074767 1.76170133,19.5656618 C1.33998394,19.7760452 1.26969771,20.0565565 1.26969771,20.1266843 C1.19941148,20.5474512 1.83198756,21.1786016 2.95656726,21.5292407 C2.46456364,21.5292407 1.33998394,21.4591129 0.496549169,20.6175791 C0.496549169,20.6175791 0.496549169,20.6175791 0.496549169,20.6175791 C0.496549169,20.6175791 0.496549169,20.6175791 0.496549169,20.6175791 C0.355976707,20.8980903 0.215404244,21.1084738 0.145118013,21.4591129 C-0.417171836,23.352564 0.707407863,25.316143 2.6051361,25.8771655 C9.77433169,27.9810001 19.1926867,29.1030453 29.1030453,29.1030453 C39.0134039,29.1030453 48.4317588,27.9810001 55.6009544,25.8771655 C57.4986827,25.316143 58.6232624,23.352564 58.0609725,21.4591129 C57.8501138,21.1786016 57.7095414,20.8980903 57.5689689,20.6175791 Z" id="Shape"></path>
                </g>
            </g>
            <g id="bouche3-copy-3" opacity="0.144021739" transform="translate(949.230772, 195.084874) rotate(-18.000000) translate(-949.230772, -195.084874) translate(938.730772, 184.584874)" fill-rule="nonzero" fill="#000000">
                <path d="M20.2971322,4.68395358 C20.2971322,2.08175715 18.3563705,0 15.9304185,0 L4.36671369,0 C1.94076164,0 0,2.08175715 0,4.68395358 C0,7.19941013 1.85989657,9.28116727 4.28584862,9.36790715 C4.36671369,8.50050834 4.69017397,7.71984941 5.25622945,7.19941013 C5.17536438,7.45962977 5.17536438,7.63310953 5.17536438,7.89332918 L5.17536438,13.097722 C5.17536438,17.0877566 8.16737191,20.2971322 11.8871651,20.2971322 C15.6069582,20.2971322 18.5989657,17.0877566 18.5989657,13.097722 L18.5989657,8.50050834 C19.5693465,7.54636965 20.2971322,6.24527144 20.2971322,4.68395358 Z" id="Shape"></path>
            </g>
            <g id="bouche3-copy-4" opacity="0.0444406703" transform="translate(933.303901, 191.160237) rotate(30.000000) translate(-933.303901, -191.160237) translate(926.803901, 184.660237)" fill-rule="nonzero" fill="#000000">
                <path d="M12.4065871,2.86305856 C12.4065871,1.27247047 11.2202999,0 9.73744088,0 L2.66914623,0 C1.18628721,0 0,1.27247047 0,2.86305856 C0,4.40062705 1.13685858,5.67309753 2.6197176,5.72611713 C2.66914623,5.1959211 2.86686077,4.71874467 3.2128612,4.40062705 C3.16343257,4.55968586 3.16343257,4.66572507 3.16343257,4.82478388 L3.16343257,8.00596006 C3.16343257,10.4448618 4.99229203,12.4065871 7.26600919,12.4065871 C9.53972635,12.4065871 11.3685858,10.4448618 11.3685858,8.00596006 L11.3685858,5.1959211 C11.9617294,4.61270547 12.4065871,3.81741142 12.4065871,2.86305856 Z" id="Shape"></path>
            </g>
            <g id="Page-1-Copy-5" opacity="0.11571558" transform="translate(152.928343, 583.498691) rotate(-3.000000) translate(-152.928343, -583.498691) translate(142.928343, 565.498691)">
                <g id="Group-3">
                    <mask id="mask-2" fill="white">
                        <use xlink:href="#path-1"></use>
                    </mask>
                    <g id="Clip-2"></g>
                    <path d="M9.38448754,0.140870559 C14.1609066,0.130247288 17.8673775,2.76451926 19.2648755,6.63752447 C20.7069668,10.6338195 19.6073867,15.0644716 16.4088724,17.8054252 C15.3935402,18.6753364 14.2326625,19.3645024 13.143686,20.1443403 C12.5060167,20.6009913 12.0011105,21.0564454 11.9541931,22.0204698 C11.885197,23.4403971 10.4226248,24.693195 8.74798028,25.0211698 C7.10383933,25.3431596 5.71738069,24.7708496 4.65919826,23.5196976 C4.25103181,23.0373113 3.99988598,22.289044 3.94425333,21.6377328 C3.74292994,19.2832568 4.9058412,17.5111157 6.574966,16.1106394 C7.86090821,15.0315544 9.23603696,14.0250369 10.6938158,13.2217082 C11.3311946,12.8705417 11.9406844,12.5763819 12.4383279,12.0263657 C14.349157,9.91383103 12.5404422,7.15237906 10.6402167,6.7267001 C8.72386796,6.29743018 6.39383306,7.87999831 6.31045671,9.87702364 C6.24799707,11.3755034 5.68150271,12.5888006 4.21239399,13.1427069 C2.20685869,13.8989043 0.0203356951,12.4100005 0.000435764896,10.2030533 C-0.033263387,6.4285004 1.72853409,3.65717327 4.75739062,1.69216738 C6.38366521,0.637022203 8.18976545,0.129349547 9.38448754,0.140870559" id="Fill-1" fill="#1D1D1B" mask="url(#mask-2)"></path>
                </g>
                <path d="M5.23682375,31.9206546 C5.23682375,29.8646021 6.85210223,28.2654842 8.91545872,28.2789324 C10.9153273,28.2919222 12.581274,29.9433049 12.5683017,31.899871 C12.554719,33.9421695 10.9345568,35.5816322 8.90187597,35.6100569 C6.90399137,35.6380231 5.23697636,33.9598968 5.23682375,31.9206546" id="Fill-4" fill="#1D1D1B"></path>
            </g>
            <g id="bouche3-copy" opacity="0.101845562" transform="translate(449.011800, 460.011800) rotate(12.000000) translate(-449.011800, -460.011800) translate(435.511800, 446.511800)" fill-rule="nonzero" fill="#000000">
                <path d="M26.4791614,6.1105757 C26.4791614,2.71581142 23.9472894,0 20.7824494,0 L5.69671201,0 C2.53187201,0 0,2.71581142 0,6.1105757 C0,9.39218118 2.42637734,12.1079926 5.59121734,12.2211514 C5.69671201,11.0895633 6.11869068,10.071134 6.85715335,9.39218118 C6.75165868,9.7316576 6.75165868,9.95797522 6.75165868,10.2974517 L6.75165868,17.0869802 C6.75165868,22.2922854 10.6549614,26.4791614 15.507716,26.4791614 C20.3604707,26.4791614 24.2637734,22.2922854 24.2637734,17.0869802 L24.2637734,11.0895633 C25.5297094,9.84481641 26.4791614,8.14743427 26.4791614,6.1105757 Z" id="Shape"></path>
            </g>
            <g id="bouche3-copy-2" opacity="0.101845562" transform="translate(575.930296, 410.930296) rotate(12.000000) translate(-575.930296, -410.930296) translate(570.930296, 405.930296)" fill-rule="nonzero" fill="#000000">
                <path d="M9.59264039,2.21368624 C9.59264039,0.983860552 8.67541581,0 7.52888508,0 L2.0637553,0 C0.917224579,0 0,0.983860552 0,2.21368624 C0,3.40251774 0.879006888,4.3863783 2.02553761,4.42737249 C2.0637553,4.01743059 2.21662607,3.64848288 2.4841499,3.40251774 C2.44593221,3.52550031 2.44593221,3.60748869 2.44593221,3.73047126 L2.44593221,6.19012264 C2.44593221,8.07585537 3.85998677,9.59264039 5.61800055,9.59264039 C7.37601432,9.59264039 8.79006888,8.07585537 8.79006888,6.19012264 L8.79006888,4.01743059 C9.24868117,3.5664945 9.59264039,2.95158166 9.59264039,2.21368624 Z" id="Shape"></path>
            </g>
            <g id="lunettes2-copy-3" opacity="0.258265399" transform="translate(870.638538, 113.812305) rotate(16.000000) translate(-870.638538, -113.812305) translate(827.138538, 96.312305)" fill-rule="nonzero" fill="#000000">
                <path d="M86.4041069,12.7479793 L86.4041069,12.7479793 C86.2478608,11.646302 85.7791224,11.0167722 84.8416457,11.0167722 C84.5291534,11.0167722 84.2166612,11.0167722 83.7479228,11.0167722 C83.4354305,11.0167722 83.1229383,11.0167722 82.9666922,11.0167722 C82.1854615,11.0167722 82.1854615,10.8593897 81.5604771,10.0724774 C81.4042309,9.75771252 81.2479848,9.60033006 80.9354926,9.12818268 C80.7792464,8.97080022 80.6230003,8.81341776 80.6230003,8.49865284 C78.7480468,5.66576856 74.9981398,0.31476492 66.2483568,0 C66.0921107,0 65.7796185,0 65.6233723,0 C57.1860816,0 52.0299595,6.13791594 50.9362366,8.34127038 C49.6862676,10.7020073 49.0612831,11.1741547 43.2801765,11.1741547 C37.9678083,11.1741547 37.0303315,11.0167722 35.6241164,8.34127038 C34.3741474,6.2952984 29.3742714,0 20.7807346,0 C20.6244884,0 20.3119962,0 20.1557501,0 C11.249721,0.31476492 7.65606011,5.66576856 5.78110661,8.49865284 C5.62486049,8.6560353 5.46861436,8.81341776 5.46861436,9.12818268 C5.31236824,9.4429476 4.99987599,9.75771252 4.84362986,10.0724774 C4.37489149,10.8593897 4.37489149,11.0167722 3.43741474,11.0167722 C3.12492249,11.0167722 2.81243024,11.0167722 2.65618412,11.0167722 C2.18744574,11.0167722 1.8749535,11.0167722 1.56246125,11.0167722 C0.624984498,11.0167722 0.156246125,11.646302 0,12.7479793 L0,12.9053617 C0,13.692274 0,16.5251583 0,17.4694531 C0,19.2006601 1.8749535,19.2006601 2.96867637,19.2006601 C2.96867637,19.2006601 3.59366087,19.2006601 3.74990699,19.2006601 C3.90615312,19.2006601 3.90615312,19.83019 3.90615312,20.1449549 L3.90615312,20.3023373 C4.99987599,26.1254884 10.1559981,34.6241412 20.6244884,34.6241412 C24.8431338,34.6241412 28.7492869,33.3650815 31.7179633,30.6895797 C34.2179013,28.4862253 36.0928548,25.4959585 37.0303315,22.1909269 C38.2803005,17.4694531 41.0927308,16.9973057 42.655192,16.9973057 C42.9676843,16.9973057 43.7489149,16.9973057 43.905161,16.9973057 C45.4676223,16.9973057 48.1238064,17.4694531 49.5300215,22.1909269 C50.4674983,25.4959585 52.3424517,28.3288428 54.8423897,30.5321973 C57.8110661,33.2076991 61.7172192,34.4667588 65.9358646,34.4667588 C76.2481088,34.4667588 81.5604771,25.9681059 82.6541999,20.1449549 L82.6541999,19.9875724 C82.6541999,19.6728075 82.810446,19.2006601 82.810446,19.2006601 C82.9666922,19.2006601 82.9666922,19.2006601 83.1229383,19.2006601 L83.5916767,19.2006601 C84.6853995,19.2006601 86.560353,19.2006601 86.560353,17.4694531 C86.4041069,16.3677758 86.4041069,13.5348916 86.4041069,12.7479793 Z M20.7807346,29.2731376 C14.2183973,29.2731376 8.9060291,23.9221339 8.9060291,17.3120706 C8.9060291,10.7020073 14.2183973,5.35100364 20.7807346,5.35100364 C27.3430718,5.35100364 32.65544,10.7020073 32.65544,17.3120706 C32.65544,23.9221339 27.3430718,29.2731376 20.7807346,29.2731376 Z M65.6233723,29.2731376 C59.0610351,29.2731376 53.7486669,23.9221339 53.7486669,17.3120706 C53.7486669,10.7020073 59.0610351,5.35100364 65.6233723,5.35100364 C72.1857096,5.35100364 77.4980778,10.7020073 77.4980778,17.3120706 C77.4980778,23.9221339 72.1857096,29.2731376 65.6233723,29.2731376 Z M65.6233723,7.0822107 C59.9985119,7.0822107 55.4673742,11.646302 55.4673742,17.3120706 C55.4673742,22.9778392 59.9985119,27.5419305 65.6233723,27.5419305 C71.2482328,27.5419305 75.7793704,22.9778392 75.7793704,17.3120706 C75.7793704,11.646302 71.2482328,7.0822107 65.6233723,7.0822107 Z M65.6233723,24.0795164 C61.8734653,24.0795164 58.904789,21.0892496 58.904789,17.3120706 C58.904789,13.5348916 61.8734653,10.5446248 65.6233723,10.5446248 C69.3732793,10.5446248 72.3419557,13.5348916 72.3419557,17.3120706 C72.3419557,21.0892496 69.3732793,24.0795164 65.6233723,24.0795164 Z M20.7807346,7.0822107 C15.1558741,7.0822107 10.6247365,11.646302 10.6247365,17.3120706 C10.6247365,22.9778392 15.1558741,27.5419305 20.7807346,27.5419305 C26.4055951,27.5419305 30.9367327,22.9778392 30.9367327,17.3120706 C30.7804865,11.646302 26.2493489,7.0822107 20.7807346,7.0822107 Z M20.7807346,24.0795164 C17.0308276,24.0795164 14.0621512,21.0892496 14.0621512,17.3120706 C14.0621512,13.5348916 17.0308276,10.5446248 20.7807346,10.5446248 C24.5306416,10.5446248 27.4993179,13.5348916 27.4993179,17.3120706 C27.4993179,21.0892496 24.3743954,24.0795164 20.7807346,24.0795164 Z" id="Shape"></path>
            </g>
            <g id="lunettes2-copy-4" opacity="0.258265399" transform="translate(46.638538, 527.812305) rotate(16.000000) translate(-46.638538, -527.812305) translate(3.138538, 510.312305)" fill-rule="nonzero" fill="#000000">
                <path d="M86.4041069,12.7479793 L86.4041069,12.7479793 C86.2478608,11.646302 85.7791224,11.0167722 84.8416457,11.0167722 C84.5291534,11.0167722 84.2166612,11.0167722 83.7479228,11.0167722 C83.4354305,11.0167722 83.1229383,11.0167722 82.9666922,11.0167722 C82.1854615,11.0167722 82.1854615,10.8593897 81.5604771,10.0724774 C81.4042309,9.75771252 81.2479848,9.60033006 80.9354926,9.12818268 C80.7792464,8.97080022 80.6230003,8.81341776 80.6230003,8.49865284 C78.7480468,5.66576856 74.9981398,0.31476492 66.2483568,0 C66.0921107,0 65.7796185,0 65.6233723,0 C57.1860816,0 52.0299595,6.13791594 50.9362366,8.34127038 C49.6862676,10.7020073 49.0612831,11.1741547 43.2801765,11.1741547 C37.9678083,11.1741547 37.0303315,11.0167722 35.6241164,8.34127038 C34.3741474,6.2952984 29.3742714,0 20.7807346,0 C20.6244884,0 20.3119962,0 20.1557501,0 C11.249721,0.31476492 7.65606011,5.66576856 5.78110661,8.49865284 C5.62486049,8.6560353 5.46861436,8.81341776 5.46861436,9.12818268 C5.31236824,9.4429476 4.99987599,9.75771252 4.84362986,10.0724774 C4.37489149,10.8593897 4.37489149,11.0167722 3.43741474,11.0167722 C3.12492249,11.0167722 2.81243024,11.0167722 2.65618412,11.0167722 C2.18744574,11.0167722 1.8749535,11.0167722 1.56246125,11.0167722 C0.624984498,11.0167722 0.156246125,11.646302 0,12.7479793 L0,12.9053617 C0,13.692274 0,16.5251583 0,17.4694531 C0,19.2006601 1.8749535,19.2006601 2.96867637,19.2006601 C2.96867637,19.2006601 3.59366087,19.2006601 3.74990699,19.2006601 C3.90615312,19.2006601 3.90615312,19.83019 3.90615312,20.1449549 L3.90615312,20.3023373 C4.99987599,26.1254884 10.1559981,34.6241412 20.6244884,34.6241412 C24.8431338,34.6241412 28.7492869,33.3650815 31.7179633,30.6895797 C34.2179013,28.4862253 36.0928548,25.4959585 37.0303315,22.1909269 C38.2803005,17.4694531 41.0927308,16.9973057 42.655192,16.9973057 C42.9676843,16.9973057 43.7489149,16.9973057 43.905161,16.9973057 C45.4676223,16.9973057 48.1238064,17.4694531 49.5300215,22.1909269 C50.4674983,25.4959585 52.3424517,28.3288428 54.8423897,30.5321973 C57.8110661,33.2076991 61.7172192,34.4667588 65.9358646,34.4667588 C76.2481088,34.4667588 81.5604771,25.9681059 82.6541999,20.1449549 L82.6541999,19.9875724 C82.6541999,19.6728075 82.810446,19.2006601 82.810446,19.2006601 C82.9666922,19.2006601 82.9666922,19.2006601 83.1229383,19.2006601 L83.5916767,19.2006601 C84.6853995,19.2006601 86.560353,19.2006601 86.560353,17.4694531 C86.4041069,16.3677758 86.4041069,13.5348916 86.4041069,12.7479793 Z M20.7807346,29.2731376 C14.2183973,29.2731376 8.9060291,23.9221339 8.9060291,17.3120706 C8.9060291,10.7020073 14.2183973,5.35100364 20.7807346,5.35100364 C27.3430718,5.35100364 32.65544,10.7020073 32.65544,17.3120706 C32.65544,23.9221339 27.3430718,29.2731376 20.7807346,29.2731376 Z M65.6233723,29.2731376 C59.0610351,29.2731376 53.7486669,23.9221339 53.7486669,17.3120706 C53.7486669,10.7020073 59.0610351,5.35100364 65.6233723,5.35100364 C72.1857096,5.35100364 77.4980778,10.7020073 77.4980778,17.3120706 C77.4980778,23.9221339 72.1857096,29.2731376 65.6233723,29.2731376 Z M65.6233723,7.0822107 C59.9985119,7.0822107 55.4673742,11.646302 55.4673742,17.3120706 C55.4673742,22.9778392 59.9985119,27.5419305 65.6233723,27.5419305 C71.2482328,27.5419305 75.7793704,22.9778392 75.7793704,17.3120706 C75.7793704,11.646302 71.2482328,7.0822107 65.6233723,7.0822107 Z M65.6233723,24.0795164 C61.8734653,24.0795164 58.904789,21.0892496 58.904789,17.3120706 C58.904789,13.5348916 61.8734653,10.5446248 65.6233723,10.5446248 C69.3732793,10.5446248 72.3419557,13.5348916 72.3419557,17.3120706 C72.3419557,21.0892496 69.3732793,24.0795164 65.6233723,24.0795164 Z M20.7807346,7.0822107 C15.1558741,7.0822107 10.6247365,11.646302 10.6247365,17.3120706 C10.6247365,22.9778392 15.1558741,27.5419305 20.7807346,27.5419305 C26.4055951,27.5419305 30.9367327,22.9778392 30.9367327,17.3120706 C30.7804865,11.646302 26.2493489,7.0822107 20.7807346,7.0822107 Z M20.7807346,24.0795164 C17.0308276,24.0795164 14.0621512,21.0892496 14.0621512,17.3120706 C14.0621512,13.5348916 17.0308276,10.5446248 20.7807346,10.5446248 C24.5306416,10.5446248 27.4993179,13.5348916 27.4993179,17.3120706 C27.4993179,21.0892496 24.3743954,24.0795164 20.7807346,24.0795164 Z" id="Shape"></path>
            </g>
            <g id="Page-1-Copy-5" opacity="0.370471014" transform="translate(950.000000, 0.000000)">
                <mask id="mask-4" fill="white">
                    <use xlink:href="#path-3"></use>
                </mask>
                <g id="Clip-2"></g>
                <path d="M53.5148115,0.148085788 C48.18468,10.8930468 42.9836952,21.3772933 37.6430705,32.1430794 L64.7715716,32.1430794 L65,32.613647 C47.573654,48.0758982 30.1473081,63.5377488 12.7209621,79 C12.6128017,78.9307164 12.5050448,78.8614329 12.3968843,78.7925498 C17.568811,68.3171139 22.7403342,57.8420785 28.0502865,47.0863045 L0,47.0863045 C0.227621277,46.3650344 0.330131568,45.8836538 0.525869723,45.4431224 C6.9686819,30.9444335 13.437727,16.4573587 19.8430059,1.94265046 C20.4649286,0.533350509 21.201469,-0.0149108249 22.8202438,0.000307532111 C32.301235,0.0896152585 41.7838405,0.0423582553 51.2656389,0.0479650184 C51.9101622,0.0479650184 52.5550892,0.103632166 53.5148115,0.148085788" id="Fill-1" fill="#1D1D1B" mask="url(#mask-4)"></path>
            </g>
            <g id="Page-1-Copy-7" opacity="0.170572917" transform="translate(399.899427, 555.766385) rotate(10.000000) translate(-399.899427, -555.766385) translate(372.399427, 522.266385)">
                <mask id="mask-6" fill="white">
                    <use xlink:href="#path-5"></use>
                </mask>
                <g id="Clip-2"></g>
                <path d="M45.2817636,0.125591744 C40.7716523,9.23840676 36.370819,18.1301095 31.8518289,27.2605863 L54.8067144,27.2605863 L55,27.6596753 C40.2546303,40.7732301 25.5092607,53.8864452 10.763891,67 C10.6723707,66.9412405 10.5811918,66.882481 10.4896714,66.8240612 C14.865917,57.9398308 19.2418212,49.05594 23.7348578,39.9339544 L0,39.9339544 C0.192602619,39.3222444 0.279342096,38.9139849 0.444966689,38.5403696 C5.89657699,26.2440132 11.3703844,13.9575067 16.7902358,1.64756431 C17.316478,0.452335242 17.9397046,-0.0126458894 19.309437,0.000260818372 C27.3318142,0.0760028142 35.3555573,0.0359240899 43.3786175,0.0406791928 C43.9239834,0.0406791928 44.4696909,0.0878905714 45.2817636,0.125591744" id="Fill-1" fill="#1D1D1B" mask="url(#mask-6)"></path>
            </g>
            <g id="lunettes4-copy" opacity="0.24926404" transform="translate(564.485184, 444.020617) rotate(15.000000) translate(-564.485184, -444.020617) translate(537.485184, 434.520617)" fill-rule="nonzero" fill="#000000">
                <path d="M53.7,2.1 C53.4,1.4 53,1 52.7,0.7 C40.8,1.1 32.1,1.5 31.1,1.5 C30.9,1.5 30.4,1.6 29.9,1.8 C29.4,2 29.2,2.2 28.9,2.5 C28.6,2.7 28,3 27.3,3.1 C26.5,3 26,2.8 25.7,2.5 C25.3,2.3 25.1,2 24.7,1.8 C24.2,1.6 23.8,1.5 23.5,1.5 C22.6,1.4 13.8,1.1 1.9,0.7 C1.6,1 1.2,1.4 0.9,2.1 C0.6,3 0.6,3.8 0.7,4.1 C1.1,7.9 1.3,9.8 1.4,10.1 C1.6,11.8 1.9,13.5 2.6,15.7 C2.8,16.3 3,17 3.7,17.6 C4.6,18.4 5.8,18.5 6.3,18.5 C14,19 17.2,19.3 19.3,17.7 C20.1,17.1 20.8,16.4 20.8,16.4 C21.4,15.7 21.9,15 22.5,13.9 C23.5,11.8 24.7,8.4 25.2,7 C25.3,6.8 25.4,6.4 25.8,6.1 C26.1,5.9 26.5,5.8 26.6,5.8 C26.9,5.7 27.1,5.8 27.3,5.8 C27.5,5.8 27.7,5.8 28,5.8 C28.1,5.8 28.5,5.9 28.8,6.1 C29.2,6.4 29.4,6.8 29.4,7 C30,8.4 31.1,11.8 32.1,13.9 C32.6,15 33.2,15.8 33.8,16.4 C33.8,16.4 34.5,17.1 35.3,17.7 C37.5,19.3 40.7,19 48.3,18.5 C48.8,18.5 50,18.4 50.9,17.6 C51.6,17 51.9,16.2 52,15.7 C52.7,13.5 52.9,11.7 53.2,10.1 C53.2,9.9 53.4,8 53.9,4.1 C54,3.8 54.1,3 53.7,2.1 Z M22,5.7 C21.1,13.4 18.2,15.5 18.2,15.5 C16.3,16.9 13.6,16.8 8.2,16.5 C7.4,16.5 6.3,16.4 5.5,15.5 C5,14.9 4.8,14.3 4.7,13.9 C4.1,11.1 3.7,6.6 3.7,5.7 C3.7,5.4 3.6,4.9 3.9,4.3 C4.1,3.9 4.3,3.6 4.5,3.4 C13.1,3.7 19.3,4 20.6,4 C20.9,4 21.5,4.1 21.9,4.5 C22,4.9 22,5.3 22,5.7 Z M51,5.7 C50.9,6.6 50.6,11.1 50,13.9 C49.9,14.3 49.7,15 49.2,15.5 C48.4,16.4 47.2,16.5 46.5,16.5 C41.1,16.8 38.5,16.9 36.5,15.5 C36.5,15.5 33.6,13.4 32.7,5.7 C32.7,5.4 32.6,4.9 32.9,4.5 C33.3,4 33.9,4 34.2,4 C35.4,3.9 41.7,3.7 50.3,3.4 C50.5,3.6 50.7,3.9 50.9,4.3 C51.1,4.8 51.1,5.4 51,5.7 Z" id="Shape"></path>
            </g>
            <g id="lunettes4-copy-3" opacity="0.24926404" transform="translate(842.239467, 191.044174) rotate(-10.000000) translate(-842.239467, -191.044174) translate(815.239467, 181.544174)" fill-rule="nonzero" fill="#000000">
                <path d="M53.7,2.1 C53.4,1.4 53,1 52.7,0.7 C40.8,1.1 32.1,1.5 31.1,1.5 C30.9,1.5 30.4,1.6 29.9,1.8 C29.4,2 29.2,2.2 28.9,2.5 C28.6,2.7 28,3 27.3,3.1 C26.5,3 26,2.8 25.7,2.5 C25.3,2.3 25.1,2 24.7,1.8 C24.2,1.6 23.8,1.5 23.5,1.5 C22.6,1.4 13.8,1.1 1.9,0.7 C1.6,1 1.2,1.4 0.9,2.1 C0.6,3 0.6,3.8 0.7,4.1 C1.1,7.9 1.3,9.8 1.4,10.1 C1.6,11.8 1.9,13.5 2.6,15.7 C2.8,16.3 3,17 3.7,17.6 C4.6,18.4 5.8,18.5 6.3,18.5 C14,19 17.2,19.3 19.3,17.7 C20.1,17.1 20.8,16.4 20.8,16.4 C21.4,15.7 21.9,15 22.5,13.9 C23.5,11.8 24.7,8.4 25.2,7 C25.3,6.8 25.4,6.4 25.8,6.1 C26.1,5.9 26.5,5.8 26.6,5.8 C26.9,5.7 27.1,5.8 27.3,5.8 C27.5,5.8 27.7,5.8 28,5.8 C28.1,5.8 28.5,5.9 28.8,6.1 C29.2,6.4 29.4,6.8 29.4,7 C30,8.4 31.1,11.8 32.1,13.9 C32.6,15 33.2,15.8 33.8,16.4 C33.8,16.4 34.5,17.1 35.3,17.7 C37.5,19.3 40.7,19 48.3,18.5 C48.8,18.5 50,18.4 50.9,17.6 C51.6,17 51.9,16.2 52,15.7 C52.7,13.5 52.9,11.7 53.2,10.1 C53.2,9.9 53.4,8 53.9,4.1 C54,3.8 54.1,3 53.7,2.1 Z M22,5.7 C21.1,13.4 18.2,15.5 18.2,15.5 C16.3,16.9 13.6,16.8 8.2,16.5 C7.4,16.5 6.3,16.4 5.5,15.5 C5,14.9 4.8,14.3 4.7,13.9 C4.1,11.1 3.7,6.6 3.7,5.7 C3.7,5.4 3.6,4.9 3.9,4.3 C4.1,3.9 4.3,3.6 4.5,3.4 C13.1,3.7 19.3,4 20.6,4 C20.9,4 21.5,4.1 21.9,4.5 C22,4.9 22,5.3 22,5.7 Z M51,5.7 C50.9,6.6 50.6,11.1 50,13.9 C49.9,14.3 49.7,15 49.2,15.5 C48.4,16.4 47.2,16.5 46.5,16.5 C41.1,16.8 38.5,16.9 36.5,15.5 C36.5,15.5 33.6,13.4 32.7,5.7 C32.7,5.4 32.6,4.9 32.9,4.5 C33.3,4 33.9,4 34.2,4 C35.4,3.9 41.7,3.7 50.3,3.4 C50.5,3.6 50.7,3.9 50.9,4.3 C51.1,4.8 51.1,5.4 51,5.7 Z" id="Shape"></path>
            </g>
            <g id="lunettes4-copy-2" opacity="0.171422101" transform="translate(217.060559, 494.498129) rotate(-25.000000) translate(-217.060559, -494.498129) translate(199.060559, 487.998129)" fill-rule="nonzero" fill="#000000">
                <path d="M35.4341093,1.38569142 C35.2361534,0.923794283 34.9722122,0.659853059 34.7742562,0.461897142 C26.9220048,0.725838365 21.1812832,0.989779589 20.5214301,0.989779589 C20.3894595,0.989779589 20.059533,1.0557649 19.7296065,1.18773551 C19.3996799,1.31970612 19.2677093,1.45167673 19.0697534,1.64963265 C18.8717975,1.78160326 18.4758857,1.97955918 18.0139885,2.04554448 C17.4861061,1.97955918 17.1561795,1.84758857 16.9582236,1.64963265 C16.6942824,1.51766204 16.5623118,1.31970612 16.2983706,1.18773551 C15.968444,1.0557649 15.7045028,0.989779589 15.5065469,0.989779589 C14.9126791,0.923794283 9.10597222,0.725838365 1.25372081,0.461897142 C1.0557649,0.659853059 0.791823671,0.923794283 0.593867754,1.38569142 C0.395911836,1.97955918 0.395911836,2.50744163 0.461897142,2.70539754 C0.725838365,5.21283917 0.857808977,6.46655998 0.923794283,6.6645159 C1.0557649,7.7862661 1.25372081,8.9080163 1.71561795,10.359693 C1.84758857,10.7556049 1.97955918,11.217502 2.44145632,11.6134138 C3.03532407,12.1412963 3.82714774,12.2072816 4.15707427,12.2072816 C9.23794283,12.5372081 11.3494726,12.735164 12.735164,11.6793992 C13.2630465,11.2834873 13.7249436,10.8215902 13.7249436,10.8215902 C14.1208555,10.359693 14.450782,9.89779589 14.8466938,9.17195753 C15.5065469,7.7862661 16.2983706,5.5427657 16.6282971,4.61897142 C16.6942824,4.4870008 16.7602677,4.22305958 17.0242089,4.02510366 C17.2221649,3.89313305 17.4861061,3.82714774 17.5520914,3.82714774 C17.7500473,3.76116244 17.8820179,3.82714774 18.0139885,3.82714774 C18.1459591,3.82714774 18.2779297,3.82714774 18.4758857,3.82714774 C18.541871,3.82714774 18.8058122,3.89313305 19.0037681,4.02510366 C19.2677093,4.22305958 19.3996799,4.4870008 19.3996799,4.61897142 C19.7955918,5.5427657 20.5214301,7.7862661 21.1812832,9.17195753 C21.5112097,9.89779589 21.9071216,10.4256783 22.3030334,10.8215902 C22.3030334,10.8215902 22.7649306,11.2834873 23.292813,11.6793992 C24.7444897,12.735164 26.8560195,12.5372081 31.8709028,12.2072816 C32.2008293,12.2072816 32.992653,12.1412963 33.5865207,11.6134138 C34.0484179,11.217502 34.2463738,10.6896196 34.3123591,10.359693 C34.7742562,8.9080163 34.9062268,7.7202808 35.1041828,6.6645159 C35.1041828,6.53254529 35.2361534,5.27882448 35.5660799,2.70539754 C35.6320652,2.50744163 35.6980505,1.97955918 35.4341093,1.38569142 Z M14.5167673,3.76116244 C13.9228996,8.842031 12.0093257,10.2277224 12.0093257,10.2277224 C10.7556049,11.1515167 8.97400161,11.0855314 5.41079509,10.8875755 C4.88291264,10.8875755 4.15707427,10.8215902 3.62919183,10.2277224 C3.2992653,9.83181059 3.16729469,9.43589875 3.10130938,9.17195753 C2.70539754,7.32436896 2.44145632,4.35503019 2.44145632,3.76116244 C2.44145632,3.56320652 2.37547101,3.23327999 2.57342693,2.83736816 C2.70539754,2.57342693 2.83736816,2.37547101 2.96933877,2.2435004 C8.64407508,2.44145632 12.735164,2.63941224 13.592973,2.63941224 C13.7909289,2.63941224 14.1868408,2.70539754 14.450782,2.96933877 C14.5167673,3.23327999 14.5167673,3.49722122 14.5167673,3.76116244 Z M33.652506,3.76116244 C33.5865207,4.35503019 33.3885648,7.32436896 32.992653,9.17195753 C32.9266677,9.43589875 32.7946971,9.89779589 32.4647705,10.2277224 C31.9368881,10.8215902 31.1450644,10.8875755 30.6831673,10.8875755 C27.1199607,11.0855314 25.4043428,11.1515167 24.0846367,10.2277224 C24.0846367,10.2277224 22.1710628,8.842031 21.577195,3.76116244 C21.577195,3.56320652 21.5112097,3.23327999 21.7091657,2.96933877 C21.9731069,2.63941224 22.3690187,2.63941224 22.5669746,2.63941224 C23.3587983,2.57342693 27.5158726,2.44145632 33.1906089,2.2435004 C33.3225795,2.37547101 33.4545501,2.57342693 33.5865207,2.83736816 C33.7184913,3.16729469 33.7184913,3.56320652 33.652506,3.76116244 Z" id="Shape"></path>
            </g>
            <g id="Page-1-Copy-5" opacity="0.11571558" transform="translate(290.843686, 682.287215) rotate(-23.000000) translate(-290.843686, -682.287215) translate(259.343686, 644.287215)">
                <mask id="mask-8" fill="white">
                    <use xlink:href="#path-7"></use>
                </mask>
                <g id="Clip-2"></g>
                <path d="M51.4317659,0.14079887 C46.3091079,10.3570282 41.3105697,20.3253721 36.1778269,30.5614017 L62.2503604,30.5614017 L62.4698973,31.0088139 C45.7218659,45.7102078 28.9738345,60.4112208 12.2258031,75.1126147 C12.1218527,75.0467404 12.0182902,74.980866 11.9143399,74.9153725 C16.8849511,64.9554057 21.8551745,54.9958197 26.9584388,44.7693094 L0,44.7693094 C0.218761197,44.0835312 0.317281311,43.6258381 0.505400425,43.2069841 C6.69742835,29.4217381 12.9146681,15.6475347 19.0706237,1.84705766 C19.6683383,0.507105712 20.3762091,-0.0141771018 21.9319736,0.000292399252 C31.0439205,0.0852055238 40.1574189,0.0402739153 49.2701415,0.0456047841 C49.889577,0.0456047841 50.5094004,0.0985326958 51.4317659,0.14079887" id="Fill-1" fill="#1D1D1B" mask="url(#mask-8)"></path>
            </g>
            <g id="Page-1-Copy-8" opacity="0.19995471" transform="translate(110.003658, 456.212882) rotate(-25.000000) translate(-110.003658, -456.212882) translate(98.003658, 441.712882)">
                <mask id="mask-10" fill="white">
                    <use xlink:href="#path-9"></use>
                </mask>
                <g id="Clip-2"></g>
                <path d="M19.6542916,0.0538053088 C17.6967034,3.95786627 15.7865468,7.76719955 13.8251049,11.6788271 L23.7885422,11.6788271 L23.8724367,11.8498025 C17.472293,17.4678379 11.0721493,23.0857278 4.6720056,28.7037632 C4.63228169,28.6785898 4.59270601,28.6534164 4.55298211,28.6283885 C6.45246662,24.8222565 8.3518029,21.0162699 10.3019799,17.1082802 L0,17.1082802 C0.0835980697,16.8462148 0.121246846,16.6713106 0.193135257,16.5112484 C2.55937566,11.2433126 4.93525058,5.97959653 7.2877062,0.705840238 C7.51611865,0.193786921 7.78662659,-0.00541768084 8.38115116,0.00011173834 C11.8632183,0.0325606982 15.3458783,0.0153903966 18.8282419,0.017427551 C19.0649548,0.017427551 19.301816,0.0376535843 19.6542916,0.0538053088" id="Fill-1" fill="#1D1D1B" mask="url(#mask-10)"></path>
            </g>
            <g id="Page-1-Copy-10" opacity="0.19995471" transform="translate(536.003658, 358.212882) rotate(-25.000000) translate(-536.003658, -358.212882) translate(524.003658, 343.712882)">
                <mask id="mask-12" fill="white">
                    <use xlink:href="#path-11"></use>
                </mask>
                <g id="Clip-2"></g>
                <path d="M19.6542916,0.0538053088 C17.6967034,3.95786627 15.7865468,7.76719955 13.8251049,11.6788271 L23.7885422,11.6788271 L23.8724367,11.8498025 C17.472293,17.4678379 11.0721493,23.0857278 4.6720056,28.7037632 C4.63228169,28.6785898 4.59270601,28.6534164 4.55298211,28.6283885 C6.45246662,24.8222565 8.3518029,21.0162699 10.3019799,17.1082802 L0,17.1082802 C0.0835980697,16.8462148 0.121246846,16.6713106 0.193135257,16.5112484 C2.55937566,11.2433126 4.93525058,5.97959653 7.2877062,0.705840238 C7.51611865,0.193786921 7.78662659,-0.00541768084 8.38115116,0.00011173834 C11.8632183,0.0325606982 15.3458783,0.0153903966 18.8282419,0.017427551 C19.0649548,0.017427551 19.301816,0.0376535843 19.6542916,0.0538053088" id="Fill-1" fill="#1D1D1B" mask="url(#mask-12)"></path>
            </g>
            <g id="Page-1-Copy-12" opacity="0.19995471" transform="translate(992.003658, 132.212882) rotate(-25.000000) translate(-992.003658, -132.212882) translate(980.003658, 117.712882)">
                <mask id="mask-14" fill="white">
                    <use xlink:href="#path-13"></use>
                </mask>
                <g id="Clip-2"></g>
                <path d="M19.6542916,0.0538053088 C17.6967034,3.95786627 15.7865468,7.76719955 13.8251049,11.6788271 L23.7885422,11.6788271 L23.8724367,11.8498025 C17.472293,17.4678379 11.0721493,23.0857278 4.6720056,28.7037632 C4.63228169,28.6785898 4.59270601,28.6534164 4.55298211,28.6283885 C6.45246662,24.8222565 8.3518029,21.0162699 10.3019799,17.1082802 L0,17.1082802 C0.0835980697,16.8462148 0.121246846,16.6713106 0.193135257,16.5112484 C2.55937566,11.2433126 4.93525058,5.97959653 7.2877062,0.705840238 C7.51611865,0.193786921 7.78662659,-0.00541768084 8.38115116,0.00011173834 C11.8632183,0.0325606982 15.3458783,0.0153903966 18.8282419,0.017427551 C19.0649548,0.017427551 19.301816,0.0376535843 19.6542916,0.0538053088" id="Fill-1" fill="#1D1D1B" mask="url(#mask-14)"></path>
            </g>
            <g id="Page-1" opacity="0.35082654" transform="translate(997.000000, 272.000000)">
                <g id="Group-3">
                    <mask id="mask-16" fill="white">
                        <use xlink:href="#path-15"></use>
                    </mask>
                    <g id="Clip-2"></g>
                    <path d="M19.7894905,17.5394362 C13.2873731,21.0742192 8.82504059,29.3673289 11.0103511,38.1361342 C13.1295687,46.6397852 21.241867,52.6406711 29.9094367,52.0817629 C38.8992851,51.5021655 46.1496469,44.693038 47.1987961,35.8388904 C48.2608303,26.8771902 42.8412117,19.4180313 36.4248939,16.7559911 C35.4903462,18.6990872 34.2072949,20.3680537 32.4591677,21.7265324 C31.0130064,19.8132528 29.9852313,17.7505861 29.437691,15.3337718 C27.1900773,18.4144609 24.6682386,21.013217 21.602043,23.0857718 C20.6177741,21.3389172 20.0843315,19.5047427 19.7894905,17.5394362 M40.8849526,0.279149888 C40.1364049,1.67976734 39.3878572,3.08053691 38.5503267,4.64757942 C43.0829966,3.38767785 47.4939403,3.35892617 51.9364147,4.54900224 C50.0645907,6.20488591 48.2308156,7.82669351 46.3970406,9.44865324 C46.4156861,9.51406711 46.43418,9.57948098 46.4528254,9.64489485 C49.2889086,9.45549888 51.9458132,10.1505593 54.5207081,11.2107204 C57.1010601,12.2733154 59.5007178,13.6713468 61.8965858,15.3066935 C58.9744,16.728 56.3356861,18.6376286 53.0014807,18.979302 C53.4965711,19.9667472 53.974532,20.8740224 54.411867,21.8004653 C55.6521702,24.4276689 56.4072362,27.1948277 56.7760528,30.0765369 C57.3981751,34.9360268 56.7813584,39.6409575 54.9903315,44.1822013 C53.546444,47.8427919 51.3700773,51.0324027 48.5912949,53.8102103 C44.0195149,58.3803579 39.4504636,62.9532438 34.8797447,67.5246085 C34.2506494,68.1537987 33.8486347,68.1574497 33.2242386,67.5416465 C32.033202,66.3673915 30.8576274,65.1764027 29.6484,64.0211633 C28.1065858,62.5482864 26.1970161,61.8399911 24.1426787,61.4771723 C17.6817936,60.3357763 12.2497447,57.342255 7.87260538,52.4270872 C4.47245868,48.6091991 2.2866934,44.1717047 1.27316773,39.1739329 C0.61845379,35.945226 0.547964792,32.6781834 1.04866406,29.4064251 C1.47326553,26.6315078 2.26304548,23.9735749 3.47227286,21.4414497 C3.53594034,21.3078837 3.5815687,21.1656465 3.65463472,20.9783803 C2.42554914,21.1009933 1.24770073,21.218434 -3.03178484e-05,21.3427204 C0.982116381,18.4938702 2.86955403,16.7042685 5.86541222,15.8144877 C4.53855159,14.8942819 3.34751491,14.0683937 2.13237555,13.2256197 C3.8915687,11.0865861 6.25363227,9.91978523 9.15050269,9.6301387 C8.5937154,7.13543624 8.94828264,4.80852796 10.3065222,2.64606711 C12.7545369,3.466783 15.1922435,4.284 17.7213584,5.13179418 C17.6208548,3.63259955 17.5288401,2.26073378 17.4319746,0.814326622 C18.9448352,0.979838926 20.3320284,1.29549888 21.6719257,1.79979418 C23.2381457,2.38927964 24.7200822,3.14929754 26.0637692,4.15864877 C26.3204098,4.3513915 26.4895834,4.34469799 26.7581995,4.14297987 C29.4293535,2.1369038 32.4111139,0.816152125 35.7171237,0.363579418 C37.3979452,0.13341387 39.1121164,0.148778523 40.8111286,0.0532438479 C40.8356861,0.128545861 40.8603951,0.203847875 40.8849526,0.279149888" id="Fill-1" fill="#1D1D1B" mask="url(#mask-16)"></path>
                </g>
                <path d="M40.6084952,40.0182705 C40.4592591,39.9895997 40.402039,39.9787589 40.3446643,39.9677756 C39.1362384,39.736269 39.1362384,39.736269 38.4457314,40.6893972 C35.6275659,44.5789363 30.1452651,46.0699644 25.4858507,44.1933773 C25.2634657,44.1037986 25.0333483,43.8306408 25.0007174,43.6176776 C24.9820049,43.4952914 25.3336763,43.2242732 25.552659,43.1860454 C30.3432156,42.3510241 34.5184245,40.3925609 38.134578,37.3919615 C38.7888972,36.8490692 38.8917386,36.8633334 39.4364118,37.4772609 C39.9195347,38.0220075 40.416576,38.558053 40.8636658,39.1271912 C40.9904778,39.2885184 41.023418,39.5621041 40.9847558,39.765653 C40.9629503,39.8801939 40.7070065,39.9569348 40.6084952,40.0182705" id="Fill-4" fill="#1D1D1B"></path>
                <path d="M38.3260797,32.9655582 C37.3722418,32.9655582 36.4184038,32.966441 35.4645659,32.9648226 C35.2448282,32.9643813 35.0088674,33.0045451 34.8089743,32.9377525 C34.5155079,32.8394761 34.0632859,32.7079504 34.0144714,32.5065426 C33.949144,32.2361353 34.113404,31.7600537 34.3380666,31.5936606 C34.9798974,31.1186088 35.6593893,30.6264911 36.4010218,30.3732969 C38.3851786,29.6958075 40.3090777,29.9348781 42.0672683,31.1364104 C42.3765233,31.3478224 42.6494209,31.650449 42.8601778,31.9652867 C43.1556721,32.4066479 42.9664978,32.8154954 42.4463411,32.9168614 C42.1247738,32.9796818 41.7904598,32.9918928 41.4615052,32.9948352 C40.4164117,33.0039567 39.3711733,32.998219 38.3260797,32.998219 L38.3260797,32.9655582 Z" id="Fill-6" fill="#1D1D1B"></path>
                <path d="M20.3690685,32.949124 C19.2528388,32.949124 18.1351634,32.9818215 17.0213914,32.9296822 C16.6755785,32.913628 16.3401747,32.6675126 16,32.5268543 C16.1580157,32.1727781 16.2378187,31.7415239 16.488215,31.4789125 C17.3233994,30.6019702 18.4309549,30.2250646 19.5797129,30.0682048 C21.2275288,29.8432987 22.7912045,30.1658556 24.1659265,31.1663711 C24.6035417,31.484804 25.1638974,31.8674537 24.9548483,32.5029939 C24.7551963,33.1098133 24.0942195,32.96562 23.6071611,32.9812324 C22.5288089,33.0158446 21.4485773,32.9919843 20.3690685,32.9919843 L20.3690685,32.949124 Z" id="Fill-8" fill="#1D1D1B"></path>
            </g>
            <g id="Page-1-Copy" opacity="0.420289855" transform="translate(525.830603, 556.390577) rotate(-6.000000) translate(-525.830603, -556.390577) translate(486.330603, 512.890577)">
                <g id="Group-3">
                    <mask id="mask-18" fill="white">
                        <use xlink:href="#path-17"></use>
                    </mask>
                    <g id="Clip-2"></g>
                    <path d="M25.1070986,22.2524353 C16.8578058,26.7370452 11.1964057,37.2585855 13.9689282,48.3836451 C16.657598,59.1723011 26.9497414,66.7856772 37.9463624,66.0765854 C49.3518612,65.3412453 58.5504584,56.702446 59.881523,45.4691119 C61.2289351,34.0993249 54.3530178,24.6358252 46.2125796,21.2584715 C45.0269108,23.7236946 43.3990924,25.8411268 41.1812283,27.5646406 C39.3464708,25.1372461 38.0425237,22.520323 37.3478545,19.4540896 C34.4962874,23.3625866 31.2968088,26.6596511 27.4066998,29.2891194 C26.1579493,27.0728698 25.4811661,24.7458367 25.1070986,22.2524353 M51.8710948,0.35415989 C50.9214059,2.13113543 49.9717169,3.90830397 48.9091346,5.89642442 C54.6597724,4.29797635 60.2559751,4.26149884 65.8921809,5.77135869 C63.5173816,7.8721927 61.1908552,9.92979411 58.8643288,11.9875885 C58.8879845,12.0705797 58.9114479,12.1535708 58.9351035,12.236562 C62.5332669,11.9962736 65.9041049,12.8781028 69.1708964,14.2231384 C72.4446115,15.571262 75.4890781,17.3449565 78.5287366,19.4197352 C74.8213341,21.2229591 71.4735748,23.6457215 67.2434394,24.0792055 C67.871565,25.3319858 68.4779581,26.4830537 69.0328088,27.6584399 C70.6063922,30.9915959 71.564351,34.5023144 72.0322719,38.1583639 C72.8215638,44.323641 72.0390032,50.2928275 69.7667118,56.054343 C67.9348391,60.6985662 65.1736637,64.745253 61.6481983,68.2694817 C55.8479413,74.0676678 50.0511462,79.8693279 44.2522354,85.669058 C43.4540967,86.467317 42.9440572,86.471949 42.1518804,85.6906743 C40.6408019,84.2008867 39.1493402,82.6898688 37.6151829,81.2242066 C35.6590698,79.3555548 33.2363822,78.4569344 30.6300264,77.996623 C22.4330453,76.548524 15.5413577,72.7506176 9.9880429,66.5147015 C5.67424722,61.6709136 2.9011478,56.0410258 1.61527896,49.7003093 C0.784637701,45.6040207 0.695207697,41.4590955 1.33044921,37.3081872 C1.86914478,33.7876256 2.87114547,30.415483 4.40530277,27.2029536 C4.48607826,27.0334973 4.54396736,26.8530398 4.63666685,26.6154535 C3.07731529,26.7710137 1.58296877,26.9200117 -3.84645179e-05,27.0776949 C1.24601959,23.463334 3.64062815,21.1928506 7.44149949,20.0639781 C5.75809987,18.8965049 4.24702128,17.8486935 2.7053634,16.7794587 C4.93726705,14.0656482 7.93403764,12.5853178 11.6093223,12.2178407 C10.9029215,9.05279 11.352764,6.10062124 13.0759744,3.35708836 C16.1817919,4.39833773 19.2745315,5.43514805 22.4832415,6.5107519 C22.3557317,4.60871064 22.2389919,2.86821261 22.1160977,1.03314327 C24.0354772,1.24313017 25.7954212,1.6436107 27.4953605,2.28341453 C29.4824375,3.03129986 31.3625832,3.99554117 33.0673306,5.27611385 C33.3929328,5.52064823 33.6075648,5.51215611 33.9483604,5.25623458 C37.3372767,2.71110844 41.1202621,1.0354593 45.3146254,0.461276369 C47.4470983,0.169263337 49.6218821,0.188756606 51.7774337,0.0675509328 C51.80859,0.163087252 51.8399386,0.258623571 51.8710948,0.35415989" id="Fill-1" fill="#1D1D1B" mask="url(#mask-18)"></path>
                </g>
                <path d="M51.520351,50.7715278 C51.3310138,50.7351528 51.2584182,50.7213991 51.1856264,50.7074644 C49.652486,50.4137499 49.652486,50.4137499 48.7764337,51.622992 C45.2010027,56.5576842 38.24556,58.4493644 32.3341204,56.068522 C32.0519786,55.9548728 31.7600266,55.6083151 31.7186275,55.3381268 C31.6948868,55.1828545 32.1410554,54.8390113 32.4188807,54.7905113 C38.4967015,53.7311125 43.7938254,51.2463933 48.3816707,47.4395067 C49.2118111,46.7507346 49.342287,46.7688316 50.0333185,47.5477268 C50.6462608,48.2388515 51.2768614,48.9189371 51.8440881,49.6410077 C52.0049756,49.8456849 52.0467671,50.1927855 51.9977161,50.4510298 C51.9700512,50.5963488 51.6453331,50.6937107 51.520351,50.7715278" id="Fill-4" fill="#1D1D1B"></path>
                <path d="M48.6246306,41.8236904 C47.4144881,41.8236904 46.2043456,41.8248103 44.9942031,41.8227571 C44.7154201,41.8221972 44.4160545,41.8731534 44.1624483,41.788413 C43.7901251,41.6637288 43.216387,41.4968611 43.1544557,41.2413333 C43.0715742,40.8982652 43.2799723,40.2942563 43.5650036,40.0831519 C44.3793,39.4804496 45.2413772,38.8560956 46.1822929,38.5348659 C48.6996099,37.6753292 51.1404774,37.9786402 53.3711091,39.5030346 C53.7634636,39.7712549 54.1096912,40.1551999 54.3770803,40.5546372 C54.7519764,41.1145959 54.5119694,41.6333044 53.852042,41.7619083 C53.4440669,41.8416091 53.0199197,41.8571013 52.6025722,41.8608343 C51.2766529,41.8724068 49.9505499,41.8651273 48.6246306,41.8651273 L48.6246306,41.8236904 Z" id="Fill-6" fill="#1D1D1B"></path>
                <path d="M25.8424143,41.8028401 C24.426244,41.8028401 23.0082395,41.8443237 21.5951873,41.7781741 C21.1564514,41.757806 20.7309217,41.4455573 20.2993391,41.2671028 C20.499815,40.8178833 20.6010617,40.2707474 20.9187417,39.9375701 C21.9783474,38.8249857 23.3835127,38.3468023 24.8409521,38.1477929 C26.9315504,37.8624525 28.9153994,38.2716833 30.6595211,39.541046 C31.2147273,39.9450446 31.9256555,40.4305156 31.6604331,41.236831 C31.4071328,42.006708 30.5685458,41.8237688 29.9506105,41.8435763 C28.5824957,41.8874892 27.2119965,41.8572173 25.8424143,41.8572173 L25.8424143,41.8028401 Z" id="Fill-8" fill="#1D1D1B"></path>
            </g>
            <g id="Page-1-Copy-11" opacity="0.19995471" transform="translate(927.497327, 287.037799) rotate(12.000000) translate(-927.497327, -287.037799) translate(918.997327, 276.537799)">
                <mask id="mask-20" fill="white">
                    <use xlink:href="#path-19"></use>
                </mask>
                <g id="Clip-2"></g>
                <path d="M13.860184,0.0379434425 C12.4796951,2.79108279 11.1326549,5.47742028 9.74944823,8.23589556 L16.7756529,8.23589556 L16.8348152,8.35646727 C12.3214412,12.3182994 7.80806709,16.280029 3.29469303,20.2418611 C3.26667978,20.2241089 3.23877105,20.2063566 3.2107578,20.188707 C4.55027211,17.504627 5.8896819,14.8206496 7.26494447,12.0647397 L0,12.0647397 C0.0589532636,11.8799315 0.0855031377,11.7565892 0.136198763,11.6437136 C1.8048688,7.92877122 3.48033309,4.21680467 5.13928211,0.497757733 C5.30035832,0.136658316 5.49112021,-0.00382054236 5.91037826,7.87977504e-05 C8.36592803,0.0229617673 10.8218959,0.0108532902 13.2776547,0.0122898891 C13.4445844,0.0122898891 13.6116187,0.0265532648 13.860184,0.0379434425" id="Fill-1" fill="#1D1D1B" mask="url(#mask-20)"></path>
            </g>
            <g id="Page-1" opacity="0.227015399" transform="translate(82.575565, 620.164886) rotate(1.000000) translate(-82.575565, -620.164886) translate(55.575565, 590.164886)">
                <g id="Group-3">
                    <mask id="mask-22" fill="white">
                        <use xlink:href="#path-21"></use>
                    </mask>
                    <g id="Clip-2"></g>
                    <path d="M35.0933853,11.4639628 C35.0243741,11.4527672 34.9553629,11.4415717 34.8863517,11.4303762 C34.85337,11.5620883 34.8192998,11.6934712 34.7876243,11.8255126 C34.499497,13.0290325 34.2727615,14.2517604 33.9092009,15.4316818 C33.4141489,17.038131 32.5923277,18.4844403 31.3589429,19.6397754 C29.9462813,20.9632631 28.2158851,21.4489517 26.3192743,21.4470858 C21.1139353,21.441927 15.9087051,21.4532323 10.7034749,21.4327072 C10.2016742,21.4307315 9.9847352,21.5561873 9.84878094,22.0637182 C9.07180618,24.9632516 8.98722936,27.8726634 9.65470053,30.7968928 C12.2730989,42.2660582 25.2244561,47.9316567 35.3435237,42.0400621 C41.6056921,38.39405 45.0079228,31.1356126 43.8107852,23.9650929 C43.4872815,22.0272778 42.8764126,20.1884663 41.8736819,18.3656798 C41.307986,21.0458027 39.619715,22.7578413 37.5047501,24.1246842 C38.3795814,25.2295297 38.5484085,26.3612664 37.8436016,27.5656643 C37.3064245,28.4835883 36.1744883,29.0553288 35.166424,28.8793833 C33.5382384,28.5951046 32.7662708,27.5333948 32.6665637,26.0050947 L28.0399827,26.0050947 C30.5132834,24.374608 32.5522707,22.3902546 33.8765457,19.7455842 C35.1939631,17.1145241 35.579185,14.3405563 35.0933853,11.4639628 M53.2036023,26.8919566 C53.0790774,34.2284335 50.5782375,40.5847525 45.427868,45.8159204 C41.0578476,50.2544006 36.6468994,54.6519402 32.2530407,59.0666025 C31.6905014,59.6318671 31.2978777,59.6317574 30.7293517,59.0625413 C29.8155518,58.1475809 28.8913024,57.2423891 28.0001435,56.3054766 C26.3961227,54.6190122 24.4309361,53.6800143 22.163907,53.2949757 C16.7824479,52.3810031 12.1105852,50.0279654 8.1764021,46.20502 C4.52708076,42.6587799 2.02765594,38.4112824 0.841294509,33.4517709 C-1.01732751,25.6824 0.18318448,18.3865343 4.6481225,11.7497782 C8.49968804,6.02479947 13.83826,2.33565169 20.518632,0.777387106 C27.5927161,-0.872636948 34.3179344,0.183804316 40.5225209,4.02727484 C46.7422376,7.88018473 50.679795,13.4628045 52.454711,20.5949081 C52.967941,22.657301 53.2069767,24.7584392 53.2036023,26.8919566" id="Fill-1" fill="#1D1D1B" mask="url(#mask-22)"></path>
                </g>
                <path d="M27.3573898,38.3553891 C24.3170045,38.2235534 22.0271528,36.8132676 20.5781669,34.0278225 C19.9026217,32.7290301 20.820529,31.242044 22.2566567,31.312964 C23.8362783,31.3911094 25.4128744,31.6105391 26.9911994,31.6156525 C28.6415955,31.6209881 30.2953412,31.4792593 31.9422796,31.3360853 C33.1809952,31.2285937 33.851786,31.4929319 34.2638988,32.3694278 C34.5522913,32.9826971 34.46747,33.5657308 34.1684883,34.1209746 C32.6917328,36.8629561 30.4089046,38.2453407 27.3573898,38.3553891" id="Fill-4" fill="#1D1D1B"></path>
                <path d="M19.4424437,27.1908462 C18.3052129,27.2563329 17.1680877,27.3279626 16.0304348,27.3842927 C15.5747404,27.4068943 14.990295,27.4585882 14.8758965,26.8964459 C14.8268233,26.6551304 15.3199821,26.1562726 15.656529,25.9649125 C17.6906904,24.8088698 19.7764577,24.7463967 21.8739393,25.7779567 C22.0775138,25.8780991 22.2647305,26.0364262 22.4336899,26.1999691 C22.836934,26.5897597 22.7826897,26.9102387 22.269374,27.1145803 C22.0607339,27.1976847 21.8252883,27.226777 21.6012403,27.2311814 C20.8825561,27.2453219 20.1635552,27.2363971 19.4446599,27.2363971 C19.4439212,27.2212135 19.4431824,27.2060299 19.4424437,27.1908462" id="Fill-6" fill="#1D1D1B"></path>
            </g>
            <g id="Page-1-Copy-3" opacity="0.227015399" transform="translate(972.875926, 248.287155) rotate(-2.000000) translate(-972.875926, -248.287155) translate(949.875926, 222.787155)">
                <g id="Group-3">
                    <mask id="mask-24" fill="white">
                        <use xlink:href="#path-23"></use>
                    </mask>
                    <g id="Clip-2"></g>
                    <path d="M29.9641592,9.78839752 C29.9052346,9.77883832 29.84631,9.76927911 29.7873854,9.75971991 C29.7592243,9.87218111 29.7301338,9.98436115 29.703088,10.0971035 C29.4570732,11.1247177 29.2634772,12.1687324 28.9530544,13.1761973 C28.5303588,14.547849 27.8286545,15.7827667 26.7755404,16.7692388 C25.5693525,17.8992864 24.0918699,18.313987 22.4724665,18.3123938 C18.0279364,18.3079891 13.5834992,18.317642 9.13906209,18.3001168 C8.71060422,18.2984299 8.52537287,18.4055492 8.4092896,18.8388996 C7.74587696,21.3146391 7.67366183,23.7988132 8.24357585,26.2956392 C10.4792709,36.0884789 21.5376662,40.9259972 30.1777375,35.8955143 C35.5246315,32.7824009 38.4295944,26.5848519 37.4074296,20.4623707 C37.1312091,18.8077854 36.6096243,17.2377334 35.7534521,15.6813642 C35.2704379,17.969762 33.8289235,19.4315701 32.0230805,20.5986362 C32.770047,21.5419982 32.9141985,22.508321 32.3124057,23.5366849 C31.853742,24.3204457 30.8872489,24.808621 30.0265226,24.6583916 C28.6363115,24.4156629 27.9771742,23.5091319 27.8920403,22.2042072 L23.9416773,22.2042072 C26.053482,20.8120313 27.7944522,19.1177097 28.9251721,16.8595826 C30.0500366,14.6130765 30.3789547,12.24455 29.9641592,9.78839752 M45.4273988,22.9614459 C45.3210743,29.2256282 43.1857556,34.6529118 38.7881607,39.1194956 C35.0568596,42.9092504 31.2906127,46.6640486 27.5389575,50.4334667 C27.0586386,50.9161127 26.7234005,50.9160189 26.2379698,50.4299991 C25.4577304,49.6487687 24.6685686,48.8758791 23.9076609,48.0759052 C22.5380828,46.6359333 20.8601265,45.8341787 18.924445,45.5054171 C14.3295364,44.7250301 10.34051,42.7159109 6.98134455,39.4517247 C3.86540561,36.4238007 1.73129508,32.7971146 0.718331457,28.562482 C-0.868635592,21.9286773 0.156410357,15.6991705 3.96875597,10.0324383 C7.25737923,5.14421874 11.8156691,1.99427438 17.5196422,0.663764718 C23.5597829,-0.745092906 29.3020477,0.156939598 34.5997759,3.43865099 C39.9104229,6.72842211 43.2724695,11.4950899 44.7879649,17.5847699 C45.2261816,19.3457248 45.43028,21.139762 45.4273988,22.9614459" id="Fill-1" fill="#1D1D1B" mask="url(#mask-24)"></path>
                </g>
                <path d="M23.3588517,32.7493906 C20.7628471,32.636824 18.8076787,31.4326646 17.5704755,29.0543384 C16.9936676,27.9453766 17.7774141,26.6757274 19.0036384,26.7362818 C20.3523835,26.8030055 21.6985454,26.9903635 23.0461835,26.9947295 C24.4553587,26.9992853 25.8673941,26.8782714 27.2736171,26.7560237 C28.3312827,26.6642429 28.9040312,26.8899457 29.2559099,27.6383335 C29.5021511,28.1619678 29.4297272,28.6597857 29.1744445,29.1338754 C27.9135306,31.4750907 25.9643591,32.6554269 23.3588517,32.7493906" id="Fill-4" fill="#1D1D1B"></path>
                <path d="M16.6007489,23.21665 C15.629735,23.2725652 14.6588113,23.3337255 13.687437,23.3818225 C13.2983466,23.4011207 12.7993233,23.445259 12.7016452,22.9652791 C12.6597446,22.7592341 13.0808236,22.333289 13.368181,22.1698979 C15.1050307,21.1828217 16.8859437,21.1294796 18.6768588,22.0102675 C18.8506789,22.0957732 19.0105321,22.2309593 19.1547965,22.3705988 C19.4991028,22.7034179 19.4527868,22.9770559 19.0144969,23.1515311 C18.8363516,23.222489 18.6353185,23.2473292 18.4440173,23.2510898 C17.8303754,23.2631635 17.2164633,23.2555432 16.6026412,23.2555432 C16.6020104,23.2425788 16.6013797,23.2296144 16.6007489,23.21665" id="Fill-6" fill="#1D1D1B"></path>
            </g>
            <g id="lunettes3" opacity="0.0995810688" transform="translate(292.601952, 394.536251) rotate(23.000000) translate(-292.601952, -394.536251) translate(263.601952, 384.536251)" fill-rule="nonzero" fill="#000000">
                <path d="M43.9,19.8 C41.1,19.8 38.6,19.1 36.9,17.8 C34.2,15.7 33,13.1 32.1,11 C31.1,8.9 30.6,7.8 29.3,7.8 C28,7.8 27.5,8.8 26.5,11 C25.6,13.1 24.4,15.6 21.7,17.8 C20,19.1 17.5,19.8 14.7,19.8 C12.5,19.8 10.2,19.3 8.2,18.5 C4,16.7 3.1,10.5 2.8,8.4 C2.8,8.2 2.8,8.1 2.7,8 C2.6,7.6 2.3,7.3 1.9,6.9 C1.5,6.5 1,6.1 1,5.4 C0.9,3.7 0.9,1.7 2.1,1.3 C2.8,1 6.9,0.8 10.4,0.8 C12.6,0.8 15.9,0.9 18.6,1.3 C21.5,1.8 23.6,2.2 25.3,2.6 C27,3 28.2,3.3 29.3,3.3 C30.4,3.3 31.6,3 33.3,2.6 C35,2.2 37.1,1.7 40,1.3 C42.7,0.9 45.9,0.8 48.2,0.8 C51.8,0.8 55.8,1 56.5,1.3 C57.7,1.7 57.7,3.8 57.6,5.4 C57.5,6.1 57.1,6.5 56.7,6.9 C56.3,7.2 56,7.5 55.9,8 C55.9,8.1 55.9,8.2 55.8,8.4 C55.5,10.4 54.6,16.7 50.4,18.5 C48.5,19.4 46.2,19.8 43.9,19.8 L43.9,19.8 Z M45.5,3.6 C43.7,3.6 41.7,3.8 39.7,4.1 C36.9,4.6 35.2,5.3 34.6,6.3 C34.3,6.8 34.2,7.4 34.4,8.2 C36.6,16.3 40.3,17 44,17 C44.2,17 44.4,17 44.6,17 C49.2,16.9 50.6,15.1 51.4,13.8 C52.4,11.9 53,6.6 51.7,5 C51,4.1 48.6,3.6 45.5,3.6 Z M13.1,3.6 C10,3.6 7.7,4.1 6.9,5 C5.6,6.6 6.1,11.8 7.2,13.8 C7.9,15.1 9.4,16.9 14,17 C14.2,17 14.4,17 14.6,17 C18.3,17 22.1,16.3 24.2,8.2 C24.4,7.4 24.4,6.8 24,6.3 C23.4,5.3 21.6,4.6 18.9,4.1 C16.9,3.8 14.9,3.6 13.1,3.6 Z" id="Shape"></path>
            </g>
            <g id="lunettes3-copy" opacity="0.0995810688" transform="translate(353.601952, 626.536251) rotate(23.000000) translate(-353.601952, -626.536251) translate(324.601952, 616.536251)" fill-rule="nonzero" fill="#000000">
                <path d="M43.9,19.8 C41.1,19.8 38.6,19.1 36.9,17.8 C34.2,15.7 33,13.1 32.1,11 C31.1,8.9 30.6,7.8 29.3,7.8 C28,7.8 27.5,8.8 26.5,11 C25.6,13.1 24.4,15.6 21.7,17.8 C20,19.1 17.5,19.8 14.7,19.8 C12.5,19.8 10.2,19.3 8.2,18.5 C4,16.7 3.1,10.5 2.8,8.4 C2.8,8.2 2.8,8.1 2.7,8 C2.6,7.6 2.3,7.3 1.9,6.9 C1.5,6.5 1,6.1 1,5.4 C0.9,3.7 0.9,1.7 2.1,1.3 C2.8,1 6.9,0.8 10.4,0.8 C12.6,0.8 15.9,0.9 18.6,1.3 C21.5,1.8 23.6,2.2 25.3,2.6 C27,3 28.2,3.3 29.3,3.3 C30.4,3.3 31.6,3 33.3,2.6 C35,2.2 37.1,1.7 40,1.3 C42.7,0.9 45.9,0.8 48.2,0.8 C51.8,0.8 55.8,1 56.5,1.3 C57.7,1.7 57.7,3.8 57.6,5.4 C57.5,6.1 57.1,6.5 56.7,6.9 C56.3,7.2 56,7.5 55.9,8 C55.9,8.1 55.9,8.2 55.8,8.4 C55.5,10.4 54.6,16.7 50.4,18.5 C48.5,19.4 46.2,19.8 43.9,19.8 L43.9,19.8 Z M45.5,3.6 C43.7,3.6 41.7,3.8 39.7,4.1 C36.9,4.6 35.2,5.3 34.6,6.3 C34.3,6.8 34.2,7.4 34.4,8.2 C36.6,16.3 40.3,17 44,17 C44.2,17 44.4,17 44.6,17 C49.2,16.9 50.6,15.1 51.4,13.8 C52.4,11.9 53,6.6 51.7,5 C51,4.1 48.6,3.6 45.5,3.6 Z M13.1,3.6 C10,3.6 7.7,4.1 6.9,5 C5.6,6.6 6.1,11.8 7.2,13.8 C7.9,15.1 9.4,16.9 14,17 C14.2,17 14.4,17 14.6,17 C18.3,17 22.1,16.3 24.2,8.2 C24.4,7.4 24.4,6.8 24,6.3 C23.4,5.3 21.6,4.6 18.9,4.1 C16.9,3.8 14.9,3.6 13.1,3.6 Z" id="Shape"></path>
            </g>
            <g id="Page-1-Copy-6" opacity="0.211503623" transform="translate(314.446810, 526.396557) rotate(-345.000000) translate(-314.446810, -526.396557) translate(304.946810, 509.896557)">
                <g id="Group-3">
                    <mask id="mask-26" fill="white">
                        <use xlink:href="#path-25"></use>
                    </mask>
                    <g id="Clip-2"></g>
                    <path d="M8.50564698,0.127678282 C12.8347629,0.118049861 16.1941294,2.50562695 17.4607542,6.01593212 C18.7677962,9.63798121 17.7711899,13.6537107 14.8722107,16.1379788 C13.9519625,16.9264244 12.899799,17.5510512 11.9128032,18.2578587 C11.3348505,18.6717451 10.8772278,19.0845467 10.8347042,19.958292 C10.7721695,21.2452457 9.44656451,22.3807212 7.92874749,22.6779818 C6.43857741,22.9698178 5.18195816,22.4511036 4.22287264,21.3171198 C3.85293025,20.8799081 3.62530377,20.2017147 3.57488102,19.6113976 C3.39241121,17.4774141 4.4464179,15.8712308 5.95923213,14.6019067 C7.12474814,13.6238761 8.37109853,12.7116172 9.69235897,11.9835187 C10.2700484,11.6652384 10.8224606,11.3986261 11.2735006,10.900118 C13.005384,8.9854184 11.3660521,6.48257149 9.64377935,6.09675661 C7.90689324,5.70768705 5.79506197,7.14205049 5.71949367,8.95205795 C5.66288326,10.3102077 5.14944009,11.4098818 3.81791079,11.9119158 C2.0001903,12.5972966 0.0184312935,11.247826 0.000394956288,9.24755554 C-0.03014833,5.82648277 1.56665994,3.3146855 4.31186945,1.53369891 C5.78584632,0.577366207 7.42280849,0.117236192 8.50564698,0.127678282" id="Fill-1" fill="#1D1D1B" mask="url(#mask-26)"></path>
                </g>
                <path d="M4.74640452,28.9313421 C4.74640452,27.0678353 6.21041505,25.6184719 8.08054187,25.6306607 C9.89312634,25.642434 11.4030601,27.1391677 11.3913026,28.9125048 C11.3789919,30.7635458 9.91055503,32.2494757 8.06823113,32.2752384 C6.25744486,32.3005857 4.74654284,30.7796129 4.74640452,28.9313421" id="Fill-4" fill="#1D1D1B"></path>
            </g>
        </g>
    </g>
</svg>